<svg width="800" height="800" viewBox="0 0 800 800" fill="none" xmlns="http://www.w3.org/2000/svg">
<path d="M750.307 82.2561H49.692C31.0847 82.2561 15.9997 97.3401 15.9997 115.947V552.286C15.9997 570.894 31.0847 585.978 49.692 585.978H750.307C768.916 585.978 784 570.894 784 552.286V115.948C784 97.3401 768.916 82.2561 750.307 82.2561Z" fill="#E7E3E6"/>
<path d="M741.415 122.612H58.5874V502.593H741.415V122.612Z" fill="white"/>
<path d="M118.185 141.847C116.391 141.847 114.596 142.532 113.227 143.901C110.487 146.641 110.487 151.078 113.227 153.818L134.876 175.467L113.227 197.117C110.487 199.856 110.487 204.294 113.227 207.033C115.966 209.773 120.404 209.773 123.143 207.033L149.751 180.425C152.49 177.686 152.49 173.249 149.751 170.509L123.143 143.901C121.773 142.532 119.979 141.847 118.185 141.847Z" fill="#85BD57"/>
<path d="M179.72 161.438C175.849 161.438 172.708 164.579 172.708 168.45C172.708 172.322 175.846 175.463 179.72 175.463L217.356 175.467C221.228 175.467 224.369 172.331 224.369 168.455C224.369 164.583 221.23 161.442 217.356 161.442L179.72 161.438Z" fill="#53B1E2"/>
<path d="M708.06 103C708.06 103 684.813 137.716 532.977 189.071C378.151 241.446 282.853 454.506 282.853 454.506C259.909 498.156 169.217 679.509 169.217 679.509C144.235 726.351 190.008 754.032 216.865 705.661C268.334 612.807 301.559 527.963 379.817 525.556C493.985 522.038 572.056 422.382 547.491 427.011C515.169 441.082 443.905 428.076 485.881 421.596C586.643 413.519 648.739 337.815 628.504 332.678C592.779 346.425 559.461 333.373 552.932 329.437C730.773 307.821 708.06 103 708.06 103Z" fill="#1361A2"/>
</svg>
