<svg width="336" height="296" viewBox="0 0 336 296" fill="none" xmlns="http://www.w3.org/2000/svg">
<circle cx="170" cy="138" r="138" fill="#7C65D8"/>
<path opacity="0.14" fill-rule="evenodd" clip-rule="evenodd" d="M113.692 70.2208L136.46 112.62L134.644 113.784L111.906 70.2208L94.0308 37.03L148.421 9L166.969 43.6076L113.692 70.2208Z" fill="black"/>
<path fill-rule="evenodd" clip-rule="evenodd" d="M94 37.0301L95.4165 36.1704L135.387 112.215L133.97 113.075L94 37.0301Z" fill="#EEBFA4"/>
<path fill-rule="evenodd" clip-rule="evenodd" d="M95.376 36.374L147.14 9.15308L164.484 42.1413L112.72 69.3622L95.376 36.374Z" fill="#075BA7"/>
<path fill-rule="evenodd" clip-rule="evenodd" d="M164.485 42.1413L158.413 45.3295L130.616 43.1036L116.804 67.2364L112.756 69.3622L109.832 63.7963L122.132 42.3945L97.5423 40.4219L95.4121 36.374L101.822 32.9845L126.533 35.0585L138.873 13.5048L147.176 9.15308L148.598 11.8348L134.983 35.7663L162.36 38.044L164.485 42.1413Z" fill="white"/>
<path fill-rule="evenodd" clip-rule="evenodd" d="M132.918 39.3572L130.388 36.6261L162.961 39.2572L164.479 42.0896L132.918 39.3572ZM132.796 32.5782L128.384 34.8548L141.185 12.2895L145.536 10.0129L132.796 32.5782ZM111.673 67.3872L125.445 43.0518L129.407 41.4324L114.036 68.6521L112.72 69.3611L111.673 67.3872ZM120.527 41.0273L96.7471 39.0039L95.3711 36.3729L95.4974 36.3223L120.254 38.2949L120.527 41.0273Z" fill="#EE2824"/>
<path fill-rule="evenodd" clip-rule="evenodd" d="M158.706 31.1604L137.299 42.3924L143.077 53.3712L134.127 58.0774L128.349 47.0974L106.937 58.38L101.073 47.1987L122.48 35.916L116.783 25.0892L125.733 20.3829L131.43 31.211L152.837 19.979L158.706 31.1604Z" fill="white"/>
<path fill-rule="evenodd" clip-rule="evenodd" d="M157.487 28.8354L134.264 41.0284L141.261 54.3357L136.075 57.0668L129.078 43.7608L105.723 56.0551L102.288 49.5281L125.642 37.2338L118.731 24.0798L123.917 21.3474L130.828 34.5015L154.051 22.3084L157.487 28.8354Z" fill="#EE2824"/>
<path opacity="0.14" fill-rule="evenodd" clip-rule="evenodd" d="M141.894 63.7457L152.372 111.205L150.146 111.963L139.607 64.2015L131.329 26.6602L193.39 12.6958L201.485 51.0462L141.894 63.7457Z" fill="black"/>
<path fill-rule="evenodd" clip-rule="evenodd" d="M131.066 25.6978L132.695 25.3445L151.334 111.053L149.705 111.407L131.066 25.6978Z" fill="#EEBFA4"/>
<path fill-rule="evenodd" clip-rule="evenodd" d="M132.69 25.2432L191.887 12.2905L199.39 48.6176L140.194 61.5703L132.69 25.2432Z" fill="white"/>
<path fill-rule="evenodd" clip-rule="evenodd" d="M139.642 57.3199L139.02 54.4875L197.928 41.3322L198.51 44.1658L139.642 57.3199ZM138.327 51.4006L137.709 48.567L196.693 35.4129L197.275 38.2453L138.327 51.4006ZM137.016 45.4813L136.394 42.6477L195.459 29.4924L196.041 32.2754L137.016 45.4813ZM135.751 39.7634L135.129 36.9804L194.265 23.7758L194.852 26.5588L135.751 39.7634ZM134.476 33.8442L133.895 31.0105L193.03 17.8553L193.617 20.6383L134.476 33.8442ZM133.287 28.1263L132.7 25.2939L147.459 22.0044L191.882 12.2905L192.423 14.9216L133.287 28.1263ZM140.33 60.4067L199.162 47.3021L199.714 49.9331L140.861 62.7846L140.33 60.4067Z" fill="#DD1F26"/>
<path fill-rule="evenodd" clip-rule="evenodd" d="M132.547 25.3118L160.157 19.2334L164.581 39.5586L137.011 45.6804L132.547 25.3118Z" fill="#0B61A5"/>
<path fill-rule="evenodd" clip-rule="evenodd" d="M135.249 26.1708L135.652 26.6248L136.256 26.6044L135.951 27.1288L136.157 27.698L135.566 27.5686L135.088 27.9421L135.028 27.34L134.526 26.9995L135.081 26.7555L135.249 26.1718L135.249 26.1708ZM139.792 25.1353L140.195 25.5883L140.801 25.5677L140.494 26.0923L140.701 26.6615L140.109 26.5321L139.631 26.9056L139.572 26.3033L139.07 25.963L139.625 25.72L139.793 25.1363L139.792 25.1353ZM144.336 24.0997L144.74 24.5535L145.345 24.5331L145.039 25.0575L145.246 25.6267L144.653 25.4966L144.176 25.8699L144.116 25.2677L143.615 24.9273L144.169 24.6832L144.336 24.0997ZM148.881 23.063L149.284 23.516L149.889 23.4954L149.584 24.0198L149.789 24.5892L149.197 24.4589L148.719 24.8324L148.661 24.23L148.158 23.8898L148.713 23.6458L148.881 23.062L148.881 23.063ZM153.425 22.0253L153.828 22.4793L154.433 22.4589L154.127 22.9833L154.334 23.5524L153.741 23.4233L153.264 23.7966L153.204 23.1945L152.703 22.854L153.257 22.61L153.425 22.0263L153.425 22.0253ZM157.969 20.9898L158.371 21.4379L158.976 21.4173L158.67 21.9419L158.876 22.511L158.285 22.3807L157.806 22.7542L157.747 22.1521L157.245 21.8116L157.8 21.5676L157.968 20.9839L157.969 20.9898ZM138.07 27.5757L138.474 28.0294L139.079 28.01L138.773 28.5344L138.98 29.1036L138.387 28.9744L137.91 29.3477L137.85 28.7456L137.349 28.4051L137.903 28.1611L138.07 27.5776L138.07 27.5757ZM142.615 26.5409L143.018 26.9949L143.629 26.9731L143.322 27.4978L143.529 28.0667L142.937 27.9376L142.459 28.3111L142.4 27.7087L141.897 27.3685L142.452 27.1245L142.62 26.5407L142.615 26.5409ZM147.165 25.504L147.567 25.958L148.172 25.9376L147.867 26.462L148.073 27.0312L147.481 26.9008L147.003 27.2743L146.944 26.6722L146.442 26.3317L146.996 26.0877L147.164 25.503L147.165 25.504ZM151.708 24.4665L152.111 24.9205L152.722 24.8988L152.415 25.4234L152.621 25.9926L152.03 25.8632L151.552 26.2367L151.492 25.6346L150.99 25.2941L151.545 25.0501L151.713 24.4664L151.708 24.4665ZM156.257 23.4299L156.66 23.8839L157.265 23.8632L156.96 24.3877L157.166 24.9568L156.574 24.8277L156.097 25.201L156.037 24.5988L155.535 24.2584L156.09 24.0144L156.257 23.4309L156.257 23.4299ZM136.134 30.0764L136.537 30.5304L137.143 30.5098L136.837 31.0342L137.044 31.6033L136.451 31.4742L135.973 31.8477L135.914 31.2453L135.412 30.9051L135.967 30.6609L136.134 30.0774L136.134 30.0764ZM140.679 29.0406L141.082 29.4946L141.687 29.473L141.381 29.9987L141.587 30.5678L140.996 30.4384L140.518 30.8119L140.458 30.2098L139.957 29.8693L140.511 29.6253L140.679 29.0416L140.679 29.0406ZM145.223 28.0051L145.626 28.4591L146.232 28.4385L145.926 28.9629L146.132 29.532L145.54 29.4029L145.062 29.7764L145.003 29.174L144.5 28.8338L145.056 28.5896L145.223 28.0061L145.223 28.0051ZM149.767 26.9693L150.17 27.4233L150.775 27.4029L150.47 27.9274L150.676 28.4965L150.085 28.3671L149.607 28.7406L149.547 28.1385L149.045 27.798L149.6 27.555L149.768 26.9703L149.767 26.9693ZM154.311 25.9338L154.714 26.3878L155.315 26.3641L155.009 26.8888L155.216 27.4577L154.624 27.3286L154.146 27.7021L154.087 27.0997L153.584 26.7595L154.14 26.5153L154.307 25.9317L154.311 25.9338ZM158.851 24.895L159.254 25.349L159.859 25.3286L159.554 25.853L159.76 26.4222L159.168 26.2928L158.69 26.6663L158.631 26.0642L158.129 25.7237L158.684 25.4797L158.852 24.896L158.851 24.895ZM138.954 31.4887L139.357 31.9427L139.963 31.9221L139.657 32.4465L139.864 33.0157L139.271 32.8865L138.793 33.26L138.734 32.6577L138.232 32.3174L138.786 32.0734L138.954 31.4887ZM143.499 30.452L143.901 30.906L144.506 30.8846L144.201 31.409L144.407 31.9782L143.815 31.8488L143.337 32.2223L143.278 31.6202L142.776 31.2797L143.331 31.0357L143.499 30.452ZM148.042 29.4155L148.445 29.8704L149.051 29.8498L148.746 30.3742L148.952 30.9434L148.359 30.8142L147.881 31.1878L147.823 30.5854L147.32 30.2452L147.876 30.0009L148.043 29.4174L148.042 29.4155ZM152.587 28.3807L152.99 28.8347L153.595 28.8133L153.289 29.3387L153.496 29.9078L152.903 29.7777L152.426 30.151L152.366 29.5489L151.865 29.2084L152.419 28.9644L152.587 28.3807ZM157.131 27.3442L157.534 27.7982L158.139 27.7766L157.834 28.302L158.039 28.8713L157.448 28.742L156.97 29.1155L156.911 28.5131L156.408 28.1729L156.964 27.9287L157.131 27.3451L157.131 27.3442ZM137.025 33.9818L137.428 34.4358L138.033 34.4142L137.727 34.9389L137.933 35.508L137.342 35.3787L136.864 35.7522L136.804 35.15L136.302 34.8096L136.857 34.5656L137.025 33.9818ZM141.568 32.9453L141.971 33.3983L142.577 33.3777L142.271 33.9021L142.478 34.4713L141.885 34.3421L141.408 34.7154L141.348 34.1133L140.846 33.7721L141.406 33.5277L141.573 32.9442L141.568 32.9453ZM146.118 31.9075L146.521 32.3615L147.127 32.3409L146.82 32.8645L147.026 33.4337L146.434 33.3033L145.956 33.6768L145.897 33.0747L145.395 32.7342L145.95 32.4902L146.118 31.9065L146.118 31.9075ZM150.661 30.87L151.064 31.324L151.67 31.3034L151.364 31.8268L151.57 32.3959L150.978 32.2668L150.5 32.6403L150.441 32.038L149.939 31.6977L150.494 31.4535L150.661 30.87ZM155.206 29.8333L155.609 30.2873L156.214 30.2668L155.908 30.7903L156.114 31.3594L155.523 31.2301L155.045 31.6036L154.985 31.0015L154.483 30.661L155.038 30.417L155.206 29.8333ZM159.749 28.7967L160.152 29.2507L160.763 29.229L160.457 29.7534L160.664 30.3226L160.071 30.1925L159.594 30.5658L159.534 29.9636L159.032 29.6234L159.587 29.3791L159.754 28.7956L159.749 28.7967ZM139.858 35.3882L140.261 35.8422L140.866 35.8215L140.56 36.3462L140.766 36.9153L140.175 36.7869L139.697 37.1604L139.637 36.5583L139.136 36.2179L139.69 35.9738L139.858 35.3901L139.858 35.3882ZM144.402 34.3536L144.805 34.8076L145.41 34.787L145.105 35.3114L145.311 35.8805L144.719 35.7504L144.241 36.1249L144.182 35.5225L143.679 35.1823L144.218 34.9399L144.385 34.3564L144.402 34.3536ZM148.929 33.3196L149.332 33.7736L149.938 33.753L149.632 34.2776L149.838 34.8468L149.246 34.7165L148.768 35.09L148.708 34.4878L148.207 34.1474L148.761 33.9034L148.929 33.3196ZM153.473 32.2831L153.876 32.7371L154.482 32.7165L154.176 33.2409L154.383 33.81L153.79 33.6809L153.312 34.0544L153.253 33.4521L152.751 33.1118L153.306 32.8676L153.473 32.2841L153.473 32.2831ZM158.018 31.2473L158.421 31.7013L159.026 31.6809L158.72 32.2054L158.926 32.7745L158.335 32.6451L157.857 33.0187L157.797 32.4165L157.295 32.0761L157.85 31.8321L158.018 31.2473ZM137.905 37.8885L138.309 38.3413L138.914 38.3219L138.608 38.8453L138.815 39.4145L138.222 39.2853L137.745 39.6596L137.686 39.0575L137.184 38.717L137.739 38.473L137.906 37.8895L137.905 37.8885ZM142.45 36.8528L142.853 37.3058L143.459 37.2861L143.152 37.8108L143.36 38.3797L142.767 38.2506L142.289 38.625L142.23 38.0229L141.728 37.6824L142.283 37.4384L142.451 36.8547L142.45 36.8528ZM146.994 35.8182L147.398 36.271L148.003 36.2506L147.697 36.775L147.904 37.3441L147.311 37.214L146.834 37.5883L146.774 36.9862L146.273 36.6457L146.827 36.4017L146.994 35.8182ZM151.539 34.7815L151.942 35.2354L152.547 35.2138L152.241 35.7385L152.448 36.3074L151.856 36.1783L151.378 36.5518L151.319 35.9494L150.816 35.6092L151.371 35.3652L151.539 34.7815ZM156.082 33.7449L156.485 34.1989L157.091 34.1783L156.786 34.7027L156.992 35.2719L156.399 35.1418L155.922 35.516L155.863 34.9139L155.36 34.5737L155.916 34.3294L156.083 33.7459L156.082 33.7449ZM160.627 32.7102L161.03 33.1632L161.641 33.1414L161.334 33.6661L161.541 34.2352L160.949 34.1049L160.471 34.4784L160.412 33.8761L159.91 33.5358L160.464 33.2928L160.632 32.7091L160.627 32.7102ZM140.734 39.3008L141.137 39.7548L141.743 39.7342L141.438 40.2586L141.644 40.8277L141.052 40.6974L140.574 41.0709L140.514 40.4688L140.012 40.1276L140.567 39.8834L140.734 39.2998L140.734 39.3008ZM145.279 38.2631L145.682 38.7171L146.288 38.6965L145.981 39.2211L146.187 39.7903L145.596 39.6609L145.118 40.0344L145.058 39.4323L144.557 39.0918L145.111 38.8478L145.279 38.2641L145.279 38.2631ZM149.824 37.2273L150.227 37.6813L150.831 37.6609L150.526 38.1854L150.732 38.7545L150.14 38.6254L149.663 38.9987L149.603 38.3965L149.1 38.0563L149.661 37.811L149.828 37.2262L149.824 37.2273ZM154.372 36.1897L154.775 36.6437L155.381 36.6231L155.074 37.1478L155.281 37.7169L154.689 37.5875L154.211 37.961L154.151 37.3589L153.65 37.0184L154.204 36.7744L154.372 36.1897ZM158.916 35.1542L159.319 35.6082L159.924 35.5866L159.619 36.111L159.825 36.6801L159.233 36.551L158.756 36.9243L158.696 36.3222L158.193 35.9819L158.749 35.7387L158.916 35.1552L158.916 35.1542ZM138.803 41.7965L139.205 42.2496L139.812 42.2299L139.506 42.7544L139.712 43.3235L139.12 43.1934L138.642 43.5669L138.583 42.9645L138.08 42.6243L138.635 42.3813L138.803 41.7965ZM143.347 40.7598L143.75 41.2138L144.355 41.1924L144.05 41.7178L144.256 42.287L143.664 42.1566L143.186 42.5301L143.126 41.928L142.625 41.5875L143.179 41.3435L143.347 40.7598ZM147.891 39.7233L148.294 40.1773L148.9 40.1567L148.589 40.6751L148.795 41.2443L148.203 41.1151L147.725 41.4887L147.666 40.8863L147.163 40.5461L147.719 40.3018L147.886 39.7183L147.891 39.7233ZM152.43 38.6816L152.833 39.1356L153.438 39.1152L153.133 39.6396L153.339 40.2087L152.747 40.0794L152.269 40.4529L152.21 39.8507L151.708 39.5103L152.262 39.2663L152.43 38.6826L152.43 38.6816ZM156.974 37.646L157.377 38.1L157.983 38.0794L157.677 38.6038L157.884 39.173L157.291 39.0438L156.813 39.4173L156.754 38.815L156.252 38.4757L156.807 38.2305L156.974 37.647L156.974 37.646ZM161.519 36.6103L161.922 37.0643L162.527 37.0439L162.221 37.5683L162.427 38.1374L161.835 38.0083L161.358 38.3816L161.298 37.7794L160.797 37.44L161.351 37.196L161.519 36.6113" fill="white"/>
<path fill-rule="evenodd" clip-rule="evenodd" d="M253.401 103.938L114.183 69.3856C113.402 69.2024 112.592 69.1757 111.8 69.3062C111.008 69.4366 110.25 69.7221 109.568 70.1462C108.887 70.5704 108.296 71.1246 107.829 71.7776C107.362 72.4306 107.03 73.1693 106.849 73.9513L80.5779 179.818C80.1669 181.383 80.3913 183.049 81.2024 184.449C82.0136 185.85 83.3455 186.873 84.9079 187.295L224.126 221.848C225.703 222.21 227.361 221.933 228.735 221.077C230.109 220.222 231.088 218.858 231.46 217.282L257.731 111.416C257.939 110.64 257.993 109.831 257.888 109.035C257.783 108.239 257.521 107.472 257.119 106.777C256.717 106.083 256.181 105.475 255.543 104.988C254.905 104.5 254.177 104.144 253.401 103.938Z" fill="#A82068"/>
<path fill-rule="evenodd" clip-rule="evenodd" d="M248.973 111.774L182.271 95.2106L113.253 78.0792L87.2721 182.764L155.156 199.617L222.992 216.459L248.973 111.774Z" fill="#881C55"/>
<path fill-rule="evenodd" clip-rule="evenodd" d="M249.564 109.364L182.862 92.8006L113.844 75.6691L87.9103 180.366L155.747 197.207L223.583 214.049L249.564 109.364Z" fill="#9A9A9A"/>
<path fill-rule="evenodd" clip-rule="evenodd" d="M155.748 197.204L223.584 214.045L249.565 109.36L182.864 92.797L181.729 92.5187L155.748 197.204Z" fill="#929291"/>
<path fill-rule="evenodd" clip-rule="evenodd" d="M251.037 103.358L182.863 92.7989L115.365 69.6754L89.3832 174.361L155.747 197.205L225.056 208.043L251.037 103.358Z" fill="#C8C8C7"/>
<path fill-rule="evenodd" clip-rule="evenodd" d="M252.859 96.1362L183.153 91.616L117.139 62.4415L91.1578 167.127L156.037 196.023L226.878 200.821L252.859 96.1362Z" fill="white"/>
<path fill-rule="evenodd" clip-rule="evenodd" d="M156.037 196.023L226.878 200.822L252.859 96.1368L183.153 91.6165L182.077 91.1016L156.037 196.023Z" fill="#E9E9E8"/>
<path fill-rule="evenodd" clip-rule="evenodd" d="M166.251 100.451L128.172 82.6389C128.037 82.5861 127.893 82.5664 127.749 82.5804C127.605 82.5944 127.467 82.6423 127.345 82.7199C127.223 82.7976 127.122 82.9033 127.049 83.0278C126.976 83.1522 126.933 83.2912 126.924 83.4353L126.46 85.3268C126.369 85.6361 126.383 85.9669 126.499 86.2675C126.616 86.5681 126.829 86.8218 127.105 86.9887L165.173 104.847C165.307 104.888 165.449 104.899 165.589 104.88C165.728 104.861 165.862 104.812 165.98 104.737C166.099 104.661 166.2 104.56 166.276 104.442C166.352 104.324 166.402 104.19 166.421 104.051L166.885 102.159C166.979 101.844 166.968 101.507 166.854 101.198C166.74 100.89 166.528 100.628 166.251 100.451ZM162.447 115.755L124.379 97.8961C124.244 97.8551 124.102 97.8447 123.963 97.8638C123.824 97.8829 123.69 97.9319 123.572 98.0076C123.453 98.0833 123.352 98.1837 123.276 98.3021C123.2 98.4205 123.151 98.5542 123.131 98.6936L122.667 100.584C122.563 100.898 122.57 101.238 122.685 101.549C122.8 101.859 123.017 102.122 123.3 102.293L161.38 120.104C161.514 120.16 161.66 120.183 161.805 120.17C161.95 120.158 162.09 120.111 162.213 120.033C162.335 119.955 162.437 119.848 162.509 119.722C162.582 119.595 162.623 119.453 162.628 119.308L163.092 117.416C163.183 117.107 163.169 116.777 163.052 116.476C162.936 116.176 162.723 115.922 162.447 115.755ZM158.109 133.234L120.041 115.376C119.906 115.335 119.764 115.323 119.625 115.343C119.486 115.362 119.352 115.411 119.234 115.486C119.115 115.562 119.014 115.663 118.938 115.781C118.862 115.899 118.813 116.033 118.793 116.172L118.329 118.063C118.235 118.378 118.246 118.715 118.36 119.023C118.474 119.332 118.686 119.595 118.962 119.772L157.042 137.583C157.176 137.636 157.322 137.657 157.465 137.643C157.609 137.629 157.747 137.581 157.869 137.503C157.991 137.425 158.092 137.32 158.165 137.195C158.239 137.071 158.281 136.931 158.29 136.787L158.754 134.896C158.845 134.587 158.831 134.256 158.714 133.955C158.598 133.655 158.385 133.401 158.109 133.234ZM153.783 150.666L115.703 132.855C115.568 132.814 115.427 132.802 115.287 132.821C115.148 132.841 115.014 132.89 114.896 132.965C114.777 133.041 114.676 133.141 114.6 133.26C114.524 133.378 114.475 133.512 114.455 133.651L113.992 135.542C113.897 135.857 113.908 136.194 114.022 136.502C114.136 136.811 114.348 137.073 114.625 137.251L152.705 155.062C152.839 155.109 152.982 155.126 153.124 155.11C153.266 155.093 153.402 155.044 153.523 154.968C153.643 154.891 153.744 154.789 153.818 154.667C153.893 154.545 153.939 154.407 153.952 154.265L154.416 152.375C154.51 152.06 154.5 151.723 154.386 151.414C154.271 151.106 154.06 150.843 153.783 150.666ZM149.445 168.145L128.045 158.134C127.911 158.081 127.766 158.062 127.622 158.076C127.478 158.09 127.34 158.138 127.218 158.215C127.097 158.293 126.995 158.397 126.922 158.522C126.849 158.646 126.806 158.786 126.797 158.93L126.286 160.81C126.203 161.12 126.221 161.448 126.337 161.747C126.453 162.045 126.661 162.299 126.931 162.471L148.367 172.542C148.501 172.589 148.645 172.605 148.786 172.588C148.928 172.572 149.064 172.524 149.184 172.447C149.305 172.371 149.406 172.267 149.48 172.146C149.555 172.024 149.601 171.886 149.614 171.744L150.078 169.854C150.173 169.539 150.162 169.202 150.048 168.893C149.933 168.585 149.722 168.322 149.445 168.145ZM191.141 106.656L233.141 108.69C233.279 108.716 233.41 108.771 233.525 108.853C233.639 108.934 233.736 109.039 233.806 109.161C233.876 109.283 233.919 109.419 233.931 109.559C233.944 109.699 233.926 109.841 233.879 109.973L233.367 111.853C233.305 112.176 233.14 112.469 232.896 112.69C232.652 112.91 232.342 113.045 232.015 113.074L190.026 110.994C189.885 110.975 189.75 110.923 189.631 110.843C189.512 110.763 189.413 110.657 189.342 110.533C189.271 110.41 189.229 110.27 189.22 110.128C189.21 109.985 189.234 109.843 189.289 109.71L189.8 107.83C189.863 107.514 190.028 107.227 190.271 107.015C190.513 106.802 190.819 106.676 191.141 106.656ZM187.348 121.914L229.336 123.994C229.48 124.01 229.618 124.059 229.739 124.138C229.86 124.217 229.96 124.324 230.032 124.449C230.104 124.574 230.145 124.714 230.153 124.858C230.16 125.002 230.133 125.146 230.074 125.278L229.61 127.169C229.539 127.489 229.364 127.776 229.113 127.986C228.862 128.196 228.549 128.317 228.222 128.331L186.269 126.31C186.128 126.29 185.994 126.237 185.875 126.157C185.757 126.077 185.659 125.972 185.588 125.848C185.517 125.724 185.475 125.586 185.465 125.443C185.455 125.301 185.478 125.159 185.532 125.027L185.996 123.135C186.058 122.812 186.223 122.518 186.467 122.298C186.711 122.077 187.02 121.943 187.348 121.914ZM183.01 139.393L225.01 141.426C225.153 141.452 225.288 141.51 225.406 141.595C225.524 141.68 225.621 141.791 225.691 141.918C225.761 142.046 225.801 142.188 225.809 142.333C225.817 142.478 225.792 142.622 225.736 142.757L225.272 144.648C225.201 144.968 225.026 145.254 224.775 145.465C224.524 145.675 224.211 145.797 223.884 145.811L181.931 143.789C181.788 143.763 181.653 143.706 181.535 143.621C181.417 143.535 181.319 143.425 181.25 143.297C181.18 143.17 181.14 143.028 181.132 142.883C181.125 142.738 181.15 142.592 181.205 142.458L181.669 140.568C181.732 140.251 181.897 139.964 182.14 139.752C182.382 139.539 182.688 139.413 183.01 139.393ZM178.672 156.872L220.672 158.906C220.811 158.932 220.942 158.987 221.056 159.069C221.171 159.15 221.267 159.255 221.337 159.377C221.407 159.499 221.45 159.635 221.462 159.775C221.475 159.915 221.457 160.057 221.41 160.189L220.946 162.08C220.88 162.408 220.707 162.705 220.454 162.924C220.2 163.143 219.881 163.273 219.547 163.29L177.605 161.22C177.46 161.208 177.32 161.162 177.197 161.084C177.075 161.005 176.973 160.898 176.9 160.772C176.828 160.646 176.787 160.504 176.781 160.359C176.776 160.213 176.805 160.068 176.868 159.937L177.331 158.046C177.394 157.73 177.559 157.443 177.802 157.231C178.044 157.018 178.35 156.892 178.672 156.872ZM174.334 174.35L197.961 175.486C198.102 175.506 198.238 175.558 198.356 175.638C198.474 175.718 198.572 175.824 198.643 175.948C198.714 176.072 198.756 176.21 198.766 176.353C198.776 176.495 198.753 176.637 198.699 176.769L198.235 178.66C198.165 178.979 197.996 179.269 197.754 179.487C197.512 179.706 197.207 179.844 196.883 179.882L173.267 178.699C173.122 178.687 172.982 178.641 172.86 178.562C172.737 178.484 172.635 178.377 172.562 178.251C172.49 178.125 172.449 177.983 172.443 177.837C172.438 177.692 172.467 177.547 172.53 177.416L172.993 175.525C173.056 175.209 173.221 174.922 173.464 174.71C173.706 174.497 174.012 174.371 174.334 174.35Z" fill="#BAC7D1"/>
<path opacity="0.17" fill-rule="evenodd" clip-rule="evenodd" d="M133.869 145.83L157.351 159.409L241.619 146.652L241.942 147.584L248.598 147.012L254.709 122.099L254.589 121.769C253.995 120.153 252.906 118.765 251.478 117.803C250.049 116.84 248.354 116.353 246.633 116.41L243.258 116.684L242.672 114.987L230.811 115.936L231.433 117.693L146.206 129.862L133.869 145.83Z" fill="black"/>
<path fill-rule="evenodd" clip-rule="evenodd" d="M244.286 98.5949L250.668 94.6481C252.18 93.6936 253.263 92.1892 253.689 90.4524C254.116 88.7155 253.851 86.8817 252.952 85.3357L242.842 68.1202C242.405 67.3708 241.822 66.7176 241.127 66.1982C240.432 65.6789 239.639 65.3047 238.797 65.0981C237.954 64.8914 237.079 64.8563 236.223 64.9952C235.366 65.134 234.547 65.443 233.813 65.9053L227.42 69.9007C225.929 70.8619 224.862 72.3577 224.44 74.0808C224.017 75.804 224.27 77.6236 225.147 79.1658L235.258 96.3801C235.695 97.1296 236.278 97.7839 236.973 98.3032C237.668 98.8226 238.46 99.1966 239.302 99.4033C240.145 99.61 241.02 99.645 241.876 99.5062C242.733 99.3674 243.552 99.0571 244.286 98.5949Z" fill="#EF63A4"/>
<path fill-rule="evenodd" clip-rule="evenodd" d="M236.325 81.2075C234.812 82.162 233.729 83.6652 233.303 85.4021C232.877 87.139 233.141 88.974 234.04 90.52L239.226 99.4101C240.081 99.6302 240.971 99.6716 241.842 99.5317C242.713 99.3917 243.545 99.0727 244.287 98.596L250.668 94.6492C252.181 93.6947 253.264 92.1903 253.69 90.4535C254.116 88.7166 253.852 86.8828 252.953 85.3368L246.696 74.6803L236.325 81.2075Z" fill="#D9488B"/>
<path fill-rule="evenodd" clip-rule="evenodd" d="M158.276 152.372L237.247 102.983L220.38 74.2888L141.456 123.688L133.5 147.747L158.276 152.372Z" fill="#FFC80F"/>
<path fill-rule="evenodd" clip-rule="evenodd" d="M237.247 102.981L231.478 93.1968L146.645 146.258L149.226 150.65L158.276 152.37L237.247 102.981Z" fill="#E8B721"/>
<path fill-rule="evenodd" clip-rule="evenodd" d="M140.34 135.592L225.233 82.4951L220.38 74.2888L141.457 123.688L138.544 132.497L140.34 135.592Z" fill="#FCD864"/>
<path fill-rule="evenodd" clip-rule="evenodd" d="M158.276 152.372L158.817 152.003L141.997 123.32L141.456 123.688L133.5 147.746L158.276 152.372Z" fill="#FBF3D8"/>
<path fill-rule="evenodd" clip-rule="evenodd" d="M135.329 142.128L133.5 147.744L139.301 148.817L135.329 142.128Z" fill="black"/>
<path fill-rule="evenodd" clip-rule="evenodd" d="M236.676 104.695L247.99 97.5974L229.613 66.2763L218.299 73.3739L236.676 104.695Z" fill="white"/>
<path fill-rule="evenodd" clip-rule="evenodd" d="M247.989 97.5984L239.759 83.5505L228.397 90.6376L236.676 104.696L247.989 97.5984Z" fill="#EBEAEA"/>
<path fill-rule="evenodd" clip-rule="evenodd" d="M305.103 95.6651H285.308C284.398 95.6664 283.512 95.3793 282.776 94.8451C282.039 94.311 281.491 93.5572 281.21 92.6921C280.929 91.827 280.93 90.895 281.212 90.0302C281.494 89.1654 282.042 88.4121 282.779 87.8786C282.547 87.3971 282.441 86.8646 282.471 86.3309C282.502 85.7973 282.667 85.2801 282.952 84.8278C283.237 84.3756 283.632 84.0032 284.1 83.7454C284.568 83.4877 285.094 83.3532 285.629 83.3545C285.926 83.355 286.221 83.397 286.506 83.4793C287.726 82.0953 289.423 81.223 291.258 81.0372C293.093 80.8514 294.931 81.3658 296.403 82.4774C297.052 82.2141 297.755 82.1134 298.452 82.1838C299.149 82.2542 299.818 82.4937 300.401 82.8815C300.985 83.2692 301.465 83.7935 301.799 84.4088C302.134 85.0242 302.313 85.7119 302.321 86.4122C302.763 86.6657 303.164 86.9848 303.51 87.3586C304.099 87.1236 304.733 87.0216 305.366 87.0601C306 87.0986 306.617 87.2765 307.173 87.5811C307.73 87.8857 308.212 88.3096 308.586 88.8224C308.959 89.3351 309.215 89.9241 309.335 90.5472C309.454 91.1703 309.435 91.8121 309.277 92.4267C309.12 93.0413 308.829 93.6136 308.424 94.1026C308.02 94.5916 307.513 94.9852 306.939 95.2553C306.365 95.5254 305.738 95.6653 305.103 95.6651Z" fill="#F6FBFF"/>
<path fill-rule="evenodd" clip-rule="evenodd" d="M307.629 94.8426C306.896 95.376 306.012 95.6636 305.105 95.6642H285.308C284.43 95.6666 283.573 95.4 282.851 94.9004C282.129 94.4007 281.578 93.692 281.271 92.8695C280.964 92.047 280.917 91.1503 281.135 90.3C281.353 89.4497 281.826 88.6867 282.491 88.1135C282.913 89.5176 283.882 92.0033 285.652 92.974C287.861 94.1874 302.584 94.6345 307.629 94.8426Z" fill="#E5F1FB"/>
<path fill-rule="evenodd" clip-rule="evenodd" d="M53.1035 230.665H33.308C32.3984 230.666 31.5119 230.379 30.7756 229.845C30.0394 229.311 29.4914 228.557 29.2104 227.692C28.9294 226.827 28.9299 225.895 29.2117 225.03C29.4935 224.165 30.0423 223.412 30.779 222.879C30.547 222.397 30.4412 221.865 30.4714 221.331C30.5016 220.797 30.6669 220.28 30.9517 219.828C31.2366 219.376 31.6317 219.003 32.0999 218.745C32.5682 218.488 33.0943 218.353 33.6287 218.354C33.9256 218.355 34.221 218.397 34.5062 218.479C35.7256 217.095 37.4228 216.223 39.258 216.037C41.0932 215.851 42.9308 216.366 44.4029 217.477C45.0519 217.214 45.7554 217.113 46.4522 217.184C47.1491 217.254 47.8182 217.494 48.4015 217.881C48.9847 218.269 49.4645 218.794 49.7991 219.409C50.1337 220.024 50.313 220.712 50.3214 221.412C50.7631 221.666 51.1638 221.985 51.5098 222.359C52.0991 222.124 52.7331 222.022 53.3664 222.06C53.9996 222.099 54.6166 222.276 55.1731 222.581C55.7297 222.886 56.212 223.31 56.5857 223.822C56.9593 224.335 57.2151 224.924 57.3346 225.547C57.4542 226.17 57.4346 226.812 57.2772 227.427C57.1199 228.041 56.8286 228.614 56.4244 229.103C56.0201 229.592 55.5128 229.985 54.9387 230.255C54.3646 230.525 53.7379 230.665 53.1035 230.665Z" fill="#F6FBFF"/>
<path fill-rule="evenodd" clip-rule="evenodd" d="M55.6294 229.843C54.8956 230.376 54.0118 230.664 53.1046 230.664H33.3081C32.4302 230.667 31.5727 230.4 30.851 229.9C30.1292 229.401 29.5778 228.692 29.271 227.87C28.9642 227.047 28.9166 226.15 29.1348 225.3C29.353 224.45 29.8264 223.687 30.4913 223.114C30.9132 224.518 31.8818 227.003 33.6516 227.974C35.861 229.187 50.5839 229.635 55.6294 229.843Z" fill="#E5F1FB"/>
<path fill-rule="evenodd" clip-rule="evenodd" d="M23.0988 98.5206C26.9514 98.0797 30.8483 98.7912 34.2965 100.565C37.7448 102.339 40.5895 105.096 42.4709 108.486C44.3524 111.877 45.1861 115.749 44.8665 119.614C44.547 123.478 43.0886 127.161 40.6757 130.197C38.2629 133.233 35.0041 135.485 31.3113 136.668C27.6186 137.852 23.6578 137.913 19.9299 136.846C16.2021 135.778 12.8745 133.629 10.3682 130.67C7.86181 127.711 6.28923 124.075 5.8493 120.223C5.2595 115.057 6.74541 109.87 9.9802 105.8C13.215 101.73 17.9338 99.1117 23.0988 98.5206Z" fill="#B0D236"/>
<path fill-rule="evenodd" clip-rule="evenodd" d="M32.3238 118.849L43.9989 123.923C43.6281 125.094 43.1482 126.227 42.5653 127.308L30.8578 122.22L38.4791 132.515C37.5692 133.339 36.5841 134.077 35.5367 134.718L27.9036 124.407L29.3637 137.182C28.7725 137.306 28.1637 137.411 27.5474 137.477C26.9311 137.544 26.3193 137.581 25.7119 137.594L24.2518 124.82L19.1414 136.586C17.9769 136.2 16.8512 135.705 15.7792 135.108L20.8808 123.361L10.623 130.957C9.81108 130.036 9.08767 129.04 8.46236 127.984L18.6936 120.407L6.11555 121.845C6.00915 121.313 5.91013 120.778 5.84806 120.229C5.77115 119.552 5.72919 118.871 5.72241 118.189L18.2842 116.755L6.77023 111.753C7.16268 110.589 7.66392 109.465 8.2673 108.395L19.7487 113.383L12.324 103.354C13.2427 102.539 14.2357 101.813 15.29 101.183L22.703 111.197L21.2901 98.829C21.8813 98.7033 22.4887 98.5984 23.1049 98.5334C23.7212 98.4683 24.3331 98.4299 24.9419 98.4181L26.3548 110.786L31.313 99.3417C32.482 99.7171 33.6131 100.201 34.6914 100.789L29.7198 112.234L39.7811 104.783C40.61 105.69 41.3522 106.673 41.9979 107.718L31.91 115.189L44.4718 113.754C44.619 114.42 44.732 115.093 44.8102 115.771C44.8723 116.319 44.8959 116.862 44.9137 117.396L32.3238 118.849Z" fill="white"/>
<path fill-rule="evenodd" clip-rule="evenodd" d="M23.7018 103.796C26.5109 103.475 29.3523 103.994 31.8665 105.287C34.3807 106.58 36.4549 108.59 37.8268 111.063C39.1986 113.535 39.8064 116.359 39.5734 119.177C39.3404 121.994 38.277 124.68 36.5177 126.893C34.7584 129.107 32.3821 130.749 29.6896 131.612C26.997 132.474 24.1091 132.52 21.3909 131.741C18.6727 130.963 16.2464 129.396 14.4189 127.238C12.5913 125.081 11.4446 122.43 11.1237 119.621C10.9105 117.756 11.0668 115.867 11.5835 114.062C12.1002 112.258 12.9673 110.573 14.1353 109.103C15.3033 107.634 16.7492 106.409 18.3907 105.498C20.0321 104.588 21.8368 104.009 23.7018 103.796Z" fill="#222221"/>
<path fill-rule="evenodd" clip-rule="evenodd" d="M24.5429 111.153L27.0671 114.7L31.4135 115.031L28.8139 118.53L29.8484 122.767L25.7104 121.375L21.9995 123.664L22.0469 119.303L18.7246 116.481L22.8848 115.177L24.5429 111.146" fill="white"/>
<path fill-rule="evenodd" clip-rule="evenodd" d="M6.13774 124.814L29.6652 127.514C30.068 127.56 30.4578 127.685 30.8122 127.882C31.1667 128.079 31.4789 128.344 31.731 128.661C31.9831 128.979 32.1701 129.343 32.2815 129.733C32.3929 130.123 32.4263 130.531 32.38 130.934L29.6815 154.465C29.588 155.279 29.1753 156.022 28.534 156.531C27.8927 157.041 27.0754 157.275 26.2617 157.181L2.73129 154.48C1.91962 154.385 1.17848 153.973 0.670195 153.333C0.161915 152.693 -0.0720681 151.878 0.0194391 151.066L2.71799 127.536C2.76372 127.133 2.88848 126.742 3.08511 126.387C3.28173 126.032 3.54638 125.719 3.86395 125.467C4.18152 125.214 4.54575 125.026 4.9359 124.914C5.32604 124.802 5.73444 124.768 6.13774 124.814Z" fill="#F6FBFF"/>
<path fill-rule="evenodd" clip-rule="evenodd" d="M16.5385 138.462C16.9216 138.506 17.2832 138.663 17.5774 138.912C17.8716 139.161 18.0853 139.492 18.1914 139.863C18.2976 140.233 18.2914 140.627 18.1737 140.994C18.0559 141.361 17.8319 141.685 17.53 141.925C17.2281 142.165 16.8619 142.31 16.4776 142.342C16.0933 142.374 15.7083 142.29 15.3712 142.103C15.034 141.916 14.76 141.633 14.5837 141.29C14.4075 140.947 14.3369 140.56 14.3809 140.177C14.4398 139.663 14.7002 139.194 15.1048 138.873C15.5094 138.552 16.0251 138.404 16.5385 138.462ZM7.44676 144.569C7.82975 144.613 8.1911 144.77 8.48511 145.019C8.77911 145.268 8.99256 145.599 9.09847 145.97C9.20439 146.341 9.19803 146.734 9.08016 147.101C8.9623 147.468 8.73823 147.792 8.43631 148.032C8.13438 148.272 7.76815 148.417 7.38393 148.448C6.99971 148.48 6.61477 148.397 6.27775 148.209C5.94073 148.022 5.66675 147.739 5.49052 147.396C5.31428 147.054 5.24366 146.666 5.28761 146.283C5.31626 146.028 5.3949 145.782 5.51898 145.558C5.64305 145.333 5.81015 145.136 6.01071 144.976C6.21127 144.816 6.44133 144.698 6.68776 144.627C6.93418 144.557 7.19208 144.535 7.44676 144.564V144.569ZM23.7032 146.434C24.0866 146.478 24.4484 146.634 24.7429 146.884C25.0373 147.133 25.2512 147.464 25.3575 147.835C25.4637 148.206 25.4576 148.6 25.3398 148.968C25.222 149.335 24.9978 149.659 24.6957 149.899C24.3936 150.139 24.0271 150.285 23.6426 150.316C23.258 150.348 22.8726 150.265 22.5352 150.078C22.1979 149.89 21.9236 149.607 21.7472 149.264C21.5707 148.921 21.5 148.533 21.544 148.15C21.573 147.895 21.652 147.648 21.7764 147.424C21.9008 147.2 22.0683 147.003 22.2691 146.843C22.4699 146.684 22.7002 146.566 22.9468 146.495C23.1934 146.425 23.4515 146.404 23.7061 146.434H23.7032ZM9.06208 130.454C9.44547 130.498 9.80727 130.654 10.1017 130.904C10.3962 131.153 10.6101 131.484 10.7163 131.855C10.8226 132.226 10.8164 132.62 10.6986 132.988C10.5809 133.355 10.3568 133.679 10.0547 133.92C9.75254 134.16 9.38599 134.305 9.00142 134.336C8.61684 134.368 8.23149 134.285 7.89411 134.098C7.55673 133.91 7.2825 133.627 7.10607 133.284C6.92963 132.941 6.85894 132.553 6.90293 132.17C6.93212 131.915 7.01122 131.669 7.1357 131.445C7.26017 131.221 7.42758 131.023 7.62838 130.864C7.82917 130.704 8.05941 130.586 8.30592 130.516C8.55243 130.446 8.81036 130.425 9.06501 130.454H9.06208ZM25.3185 132.321C25.7016 132.364 26.0631 132.521 26.3573 132.77C26.6516 133.019 26.8652 133.35 26.9714 133.721C27.0775 134.091 27.0713 134.485 26.9536 134.852C26.8359 135.22 26.6119 135.544 26.31 135.783C26.0081 136.023 25.6418 136.168 25.2576 136.2C24.8733 136.232 24.4882 136.149 24.1511 135.961C23.814 135.774 23.54 135.491 23.3637 135.148C23.1874 134.805 23.1168 134.418 23.1608 134.035C23.19 133.78 23.2691 133.534 23.3937 133.309C23.5183 133.085 23.6859 132.888 23.8869 132.729C24.0878 132.57 24.3183 132.452 24.5649 132.381C24.8116 132.311 25.0697 132.291 25.3244 132.321H25.3185Z" fill="black"/>
<path fill-rule="evenodd" clip-rule="evenodd" d="M35.878 126.577L58.3074 118.982C58.6915 118.852 59.0974 118.799 59.5021 118.826C59.9067 118.853 60.3021 118.959 60.6656 119.138C61.0292 119.318 61.3537 119.568 61.6208 119.873C61.8879 120.178 62.0923 120.533 62.2223 120.917L69.817 143.35C70.0794 144.126 70.023 144.974 69.6602 145.709C69.2975 146.443 68.6581 147.003 67.8825 147.266L45.4531 154.861C44.677 155.123 43.8285 155.067 43.0942 154.704C42.3598 154.341 41.7996 153.701 41.5367 152.925L33.9435 130.493C33.6807 129.717 33.7369 128.869 34.0997 128.134C34.4625 127.4 35.1022 126.84 35.878 126.577Z" fill="#F6FBFF"/>
<path fill-rule="evenodd" clip-rule="evenodd" d="M45.4855 143.886C45.8506 143.763 46.2442 143.75 46.6165 143.85C46.9888 143.95 47.3231 144.158 47.5771 144.448C47.8311 144.738 47.9934 145.097 48.0435 145.479C48.0936 145.861 48.0293 146.25 47.8586 146.595C47.688 146.941 47.4186 147.228 47.0847 147.421C46.7508 147.614 46.3672 147.703 45.9826 147.678C45.5979 147.652 45.2294 147.513 44.9237 147.279C44.6179 147.044 44.3886 146.724 44.2648 146.359C44.0991 145.869 44.1345 145.333 44.3634 144.87C44.5923 144.406 44.9959 144.052 45.4855 143.886ZM56.432 125.181C56.7971 125.058 57.1907 125.045 57.563 125.145C57.9353 125.245 58.2696 125.453 58.5236 125.743C58.7776 126.033 58.9399 126.392 58.99 126.774C59.0401 127.156 58.9757 127.545 58.8051 127.89C58.6344 128.236 58.3651 128.523 58.0312 128.716C57.6973 128.909 57.3137 128.998 56.9291 128.973C56.5444 128.947 56.1759 128.808 55.8702 128.574C55.5644 128.339 55.3351 128.019 55.2112 127.654C55.0459 127.164 55.0816 126.629 55.3105 126.165C55.5393 125.702 55.9426 125.348 56.432 125.181ZM51.1117 134.492C51.4768 134.368 51.8704 134.355 52.2427 134.455C52.615 134.555 52.9493 134.764 53.2033 135.054C53.4573 135.343 53.6196 135.702 53.6697 136.084C53.7198 136.467 53.6555 136.855 53.4848 137.201C53.3142 137.546 53.0448 137.834 52.7109 138.026C52.377 138.219 51.9934 138.308 51.6088 138.283C51.2241 138.258 50.8556 138.119 50.5499 137.884C50.2441 137.649 50.0148 137.329 49.891 136.964C49.8076 136.721 49.773 136.465 49.789 136.209C49.805 135.953 49.8712 135.703 49.9841 135.472C50.0969 135.242 50.2541 135.036 50.4465 134.867C50.639 134.697 50.863 134.567 51.1058 134.484L51.1117 134.492Z" fill="black"/>
<path fill-rule="evenodd" clip-rule="evenodd" d="M34.322 99.2021L39.9379 94.1952L61.8855 109.54L47.0434 122.765L34.322 99.2021Z" fill="#F04B45"/>
<path fill-rule="evenodd" clip-rule="evenodd" d="M36.9004 96.9056L39.9418 94.1952L61.885 109.54L54.2327 116.358L36.9004 96.9056Z" fill="#F86D68"/>
<path opacity="0.3" fill-rule="evenodd" clip-rule="evenodd" d="M41.1554 95.0461C40.6086 96.3589 39.7736 97.5319 38.7122 98.4783C37.6509 99.4248 36.3903 100.121 35.0238 100.514L34.3174 99.2062L39.9333 94.1993L41.1554 95.0461Z" fill="black"/>
<path fill-rule="evenodd" clip-rule="evenodd" d="M25.3085 83.4259C26.7221 82.1662 28.4776 81.354 30.3529 81.0921C32.2281 80.8301 34.139 81.1301 35.8437 81.9541C37.5485 82.7781 38.9706 84.0892 39.9303 85.7214C40.8899 87.3537 41.344 89.2338 41.2351 91.1241C41.1262 93.0144 40.4591 94.83 39.3184 96.3412C38.1776 97.8525 36.6143 98.9915 34.8261 99.6142C33.038 100.237 31.1053 100.316 29.2726 99.8399C27.4398 99.3642 25.7893 98.3558 24.5296 96.9422C23.6931 96.0036 23.0496 94.9095 22.636 93.7222C22.2224 92.5349 22.0468 91.2778 22.1191 90.0227C22.1914 88.7675 22.5103 87.5389 23.0575 86.407C23.6048 85.2751 24.3697 84.2621 25.3085 83.4259Z" fill="#DF3426"/>
<path fill-rule="evenodd" clip-rule="evenodd" d="M37.792 95.9225C36.4332 96.8584 34.8077 97.3286 33.1591 97.2629C31.5105 97.1972 29.9276 96.5989 28.6476 95.5579C27.3677 94.5168 26.4595 93.0889 26.0594 91.4883C25.6592 89.8877 25.7886 88.2005 26.4281 86.6796C27.0676 85.1586 28.1827 83.8859 29.6064 83.0521C31.0301 82.2183 32.6857 81.8684 34.3251 82.0547C35.9644 82.241 37.4992 82.9536 38.6995 84.0856C39.8998 85.2177 40.7008 86.7082 40.9827 88.3338C41.0487 89.7564 40.7965 91.1758 40.2445 92.4886C39.6925 93.8014 38.8547 94.9745 37.792 95.9225Z" fill="#F04B45"/>
<path fill-rule="evenodd" clip-rule="evenodd" d="M31.6779 85.7359C32.0503 85.4042 32.5126 85.1905 33.0064 85.1216C33.5002 85.0527 34.0034 85.1318 34.4523 85.3489C34.9012 85.5659 35.2756 85.9112 35.5283 86.3411C35.7809 86.7709 35.9005 87.266 35.8718 87.7638C35.843 88.2616 35.6674 88.7397 35.367 89.1377C35.0665 89.5356 34.6548 89.8355 34.184 89.9995C33.7131 90.1635 33.2041 90.1842 32.7215 90.059C32.2389 89.9337 31.8042 89.6682 31.4725 89.296C31.2522 89.0487 31.0827 88.7605 30.9738 88.4478C30.8648 88.1351 30.8186 87.804 30.8377 87.4734C30.8568 87.1428 30.9408 86.8192 31.085 86.521C31.2291 86.2229 31.4306 85.9561 31.6779 85.7359Z" fill="#F86D68"/>
<path fill-rule="evenodd" clip-rule="evenodd" d="M322.377 145.195C322.286 145.114 322.176 145.055 322.057 145.024C321.939 144.994 321.814 144.992 321.695 145.019C321.575 145.047 321.464 145.102 321.371 145.181C321.277 145.26 321.204 145.361 321.157 145.474C317.132 153.264 311.451 158.021 304.933 163.231C302.964 164.817 302.581 167.762 300.96 169.714C299.756 170.69 298.41 171.477 296.969 172.049C294.617 170.342 285.642 172.032 282.54 172.746C282.366 172.973 282.174 173.2 282 173.426C282.052 181.808 287.89 193.797 292.839 197.265C296.213 197.337 299.57 196.775 302.737 195.61L303.417 193.675C309.621 193.658 326.002 198.834 329.94 193.397C330.899 192.09 330.515 190.452 331.177 188.727C331.578 187.681 333.286 187.175 333.791 185.973C334.453 184.37 333.234 182.436 333.512 181.285C333.931 180.588 334.332 179.908 334.75 179.211C334.856 177.35 334.626 175.485 334.07 173.705C336.632 170.725 337.242 167.17 332.136 166.124C330.787 166.02 329.431 166.211 328.163 166.682C325.379 167.06 322.546 166.58 320.042 165.305C317.951 157.812 330.428 152.323 322.377 145.195Z" fill="#F1CCAF"/>
<path fill-rule="evenodd" clip-rule="evenodd" d="M303.435 193.676H303.417L302.737 195.61C299.57 196.775 296.213 197.337 292.839 197.266C287.89 193.798 282.052 181.808 282 173.426C282.174 173.2 282.366 172.973 282.54 172.746C285.346 172.102 292.926 170.673 296.098 171.666L303.435 193.676Z" fill="#399A5A"/>
<path fill-rule="evenodd" clip-rule="evenodd" d="M99.3648 251.113L133.887 234.059C135.024 233.525 136.328 233.464 137.51 233.89C138.693 234.316 139.658 235.194 140.193 236.331L156.241 268.816C156.818 269.932 156.929 271.232 156.549 272.43C156.169 273.628 155.329 274.626 154.213 275.205L119.691 292.259C119.128 292.523 118.519 292.674 117.898 292.702C117.276 292.731 116.656 292.637 116.071 292.425C115.486 292.214 114.949 291.889 114.489 291.47C114.03 291.051 113.658 290.545 113.394 289.982L97.3467 257.498C97.0598 256.946 96.8844 256.343 96.8306 255.724C96.7768 255.104 96.8455 254.48 97.033 253.887C97.2204 253.294 97.5228 252.744 97.9229 252.268C98.323 251.792 98.8129 251.4 99.3648 251.113Z" fill="#816952"/>
<path fill-rule="evenodd" clip-rule="evenodd" d="M115.813 291.583L155.724 271.867C155.919 271.764 156.132 271.702 156.352 271.683C156.571 271.664 156.792 271.689 157.001 271.757C157.21 271.825 157.404 271.934 157.57 272.078C157.737 272.222 157.873 272.398 157.97 272.595C158.068 272.793 158.125 273.008 158.138 273.227C158.151 273.447 158.12 273.667 158.047 273.875C157.974 274.082 157.86 274.273 157.712 274.435C157.563 274.598 157.384 274.73 157.184 274.822L117.273 294.539C117.078 294.641 116.865 294.703 116.646 294.722C116.427 294.741 116.206 294.716 115.996 294.648C115.787 294.58 115.593 294.471 115.427 294.327C115.26 294.183 115.125 294.007 115.027 293.81C114.93 293.612 114.873 293.398 114.859 293.178C114.846 292.958 114.877 292.738 114.951 292.531C115.024 292.323 115.138 292.132 115.286 291.97C115.434 291.807 115.613 291.675 115.813 291.583Z" fill="#483A2D"/>
<path fill-rule="evenodd" clip-rule="evenodd" d="M105.162 252.474L131.533 239.447C132.67 238.914 133.972 238.854 135.153 239.281C136.334 239.709 137.297 240.587 137.83 241.724L150.221 266.808C150.508 267.359 150.683 267.962 150.737 268.582C150.791 269.201 150.722 269.825 150.535 270.418C150.347 271.011 150.045 271.561 149.645 272.037C149.245 272.513 148.755 272.906 148.203 273.192L121.833 286.219C120.695 286.753 119.392 286.814 118.209 286.388C117.027 285.962 116.062 285.084 115.526 283.947L103.135 258.865C102.557 257.748 102.446 256.448 102.826 255.25C103.207 254.052 104.047 253.053 105.162 252.474Z" fill="#6C5641"/>
<path fill-rule="evenodd" clip-rule="evenodd" d="M149.564 272.143C149.183 272.578 148.722 272.935 148.205 273.195L121.834 286.222C120.697 286.756 119.393 286.817 118.211 286.391C117.028 285.965 116.063 285.087 115.528 283.95L103.135 258.865C102.811 258.211 102.637 257.494 102.627 256.765C102.617 256.035 102.771 255.313 103.077 254.651C103.459 254.217 103.921 253.86 104.438 253.6L130.808 240.573C131.945 240.039 133.249 239.978 134.431 240.404C135.614 240.83 136.579 241.708 137.114 242.845L149.506 267.929C149.831 268.583 150.004 269.3 150.014 270.029C150.024 270.759 149.871 271.481 149.564 272.143Z" fill="#7EC093"/>
<path fill-rule="evenodd" clip-rule="evenodd" d="M138.76 257.909C129.479 259.261 124.468 269.257 115.196 270.606C114.811 270.634 114.425 270.552 114.085 270.367C113.745 270.182 113.466 269.903 113.281 269.563C113.203 269.431 113.161 269.281 113.161 269.127C113.16 268.974 113.201 268.823 113.278 268.69C113.355 268.558 113.466 268.448 113.599 268.372C113.733 268.296 113.884 268.257 114.037 268.259C123.309 266.912 128.32 256.916 137.601 255.563C137.987 255.534 138.373 255.616 138.713 255.801C139.052 255.986 139.332 256.265 139.517 256.605C139.595 256.737 139.636 256.888 139.637 257.041C139.637 257.194 139.597 257.345 139.52 257.478C139.443 257.611 139.332 257.72 139.198 257.796C139.065 257.872 138.914 257.911 138.76 257.909ZM135.194 250.691C125.913 252.043 120.902 262.039 111.631 263.388C111.245 263.416 110.859 263.334 110.519 263.149C110.179 262.964 109.9 262.685 109.715 262.345C109.637 262.213 109.595 262.063 109.595 261.909C109.594 261.756 109.635 261.605 109.712 261.472C109.789 261.339 109.9 261.23 110.033 261.154C110.167 261.079 110.318 261.04 110.472 261.042C119.744 259.695 124.754 249.698 134.036 248.345C134.422 248.316 134.808 248.399 135.147 248.584C135.487 248.769 135.766 249.048 135.952 249.388C136.029 249.52 136.07 249.67 136.071 249.824C136.071 249.977 136.031 250.128 135.954 250.26C135.876 250.393 135.766 250.503 135.632 250.578C135.499 250.653 135.347 250.692 135.194 250.69L135.194 250.691ZM117.604 275.479C126.876 274.132 131.887 264.136 141.168 262.783C141.554 262.753 141.939 262.836 142.279 263.021C142.619 263.205 142.898 263.484 143.083 263.824C143.161 263.956 143.203 264.107 143.203 264.26C143.204 264.414 143.164 264.565 143.087 264.698C143.01 264.83 142.899 264.94 142.765 265.016C142.632 265.092 142.481 265.131 142.327 265.129C133.046 266.481 128.034 276.477 118.763 277.825C118.377 277.854 117.991 277.771 117.651 277.586C117.311 277.401 117.032 277.122 116.847 276.782C116.769 276.65 116.727 276.5 116.726 276.346C116.726 276.193 116.766 276.042 116.843 275.909C116.92 275.776 117.031 275.666 117.165 275.59C117.298 275.515 117.45 275.476 117.603 275.478L117.604 275.479Z" fill="white"/>
<path fill-rule="evenodd" clip-rule="evenodd" d="M137.414 278.353L149.367 272.448C149.759 272.255 150.212 272.225 150.626 272.365C151.04 272.505 151.382 272.804 151.575 273.196C151.769 273.588 151.799 274.041 151.659 274.456C151.518 274.87 151.219 275.211 150.827 275.405L138.874 281.31C138.482 281.504 138.029 281.534 137.615 281.393C137.201 281.253 136.859 280.954 136.666 280.562C136.472 280.17 136.442 279.717 136.582 279.303C136.722 278.889 137.022 278.547 137.414 278.353Z" fill="white"/>
<path fill-rule="evenodd" clip-rule="evenodd" d="M121.383 285.601L130.833 280.932C131.324 280.69 131.891 280.652 132.41 280.828C132.928 281.003 133.356 281.378 133.598 281.869C133.841 282.36 133.878 282.927 133.703 283.445C133.527 283.964 133.153 284.391 132.662 284.634L123.211 289.302C122.72 289.545 122.153 289.583 121.635 289.407C121.116 289.231 120.688 288.857 120.446 288.366C120.204 287.875 120.166 287.308 120.342 286.79C120.517 286.271 120.892 285.844 121.383 285.601Z" fill="#504F4F"/>
<path fill-rule="evenodd" clip-rule="evenodd" d="M133.601 282.124C133.63 282.11 133.659 282.095 133.681 282.092C133.853 282.566 133.844 283.088 133.655 283.556C133.467 284.024 133.113 284.407 132.66 284.631L123.21 289.3C122.754 289.524 122.233 289.572 121.744 289.436C121.255 289.301 120.833 288.99 120.559 288.563L133.6 282.121L133.601 282.124Z" fill="#979695"/>
</svg>
