<svg width="800" height="800" viewBox="0 0 800 800" fill="none" xmlns="http://www.w3.org/2000/svg">
<path d="M750.307 82.2561H49.692C31.0847 82.2561 15.9997 97.3401 15.9997 115.947V552.286C15.9997 570.894 31.0847 585.978 49.692 585.978H750.307C768.916 585.978 784 570.894 784 552.286V115.948C784 97.3401 768.916 82.2561 750.307 82.2561Z" fill="#E7E3E6"/>
<path d="M741.415 122.612H58.5874V502.593H741.415V122.612Z" fill="white"/>
<path d="M118.185 141.847C116.391 141.847 114.596 142.532 113.227 143.901C110.487 146.641 110.487 151.078 113.227 153.818L134.876 175.467L113.227 197.117C110.487 199.856 110.487 204.294 113.227 207.033C115.966 209.773 120.404 209.773 123.143 207.033L149.751 180.425C152.49 177.686 152.49 173.249 149.751 170.509L123.143 143.901C121.773 142.532 119.979 141.847 118.185 141.847Z" fill="#85BD57"/>
<path d="M179.72 161.438C175.849 161.438 172.708 164.579 172.708 168.45C172.708 172.322 175.846 175.463 179.72 175.463L217.356 175.467C221.228 175.467 224.369 172.331 224.369 168.455C224.369 164.583 221.23 161.442 217.356 161.442L179.72 161.438Z" fill="#53B1E2"/>
<path d="M684.557 662.908L585.604 386.238C578.654 368.036 563.1 356.783 545.229 356.783C527.358 356.783 512.134 368.036 504.523 386.899L405.901 662.908C401.268 675.815 407.887 690.045 420.793 694.679C433.7 699.312 447.931 692.693 452.564 679.786L473.083 622.532H617.044L637.563 679.786C641.203 690.045 650.8 696.333 661.06 696.333C663.707 696.333 666.686 696.002 669.333 695.009C682.24 690.376 688.859 676.146 684.226 663.239L684.557 662.908ZM491.285 572.56L545.56 420.656L599.835 572.56H491.285ZM406.894 281.659C332.1 399.806 264.587 471.291 182.513 518.947C178.541 521.263 174.239 522.256 170.268 522.256C161.663 522.256 153.39 517.954 148.756 510.011C141.807 498.097 145.778 482.874 157.692 476.255C227.19 435.879 284.113 377.964 347.985 281.99H139.821C126.252 281.99 115 270.738 115 257.169C115 243.6 126.252 232.348 139.821 232.348H263.925V166.821C263.925 153.252 275.177 142 288.746 142C302.315 142 313.567 153.252 313.567 166.821V232.348H437.672C451.24 232.348 462.493 243.6 462.493 257.169C462.493 270.738 451.24 281.99 437.672 281.99H406.563L406.894 281.659ZM408.217 522.256C403.915 522.256 399.613 521.263 395.642 518.947C374.13 506.371 353.281 492.471 333.754 477.909C322.833 469.636 320.517 454.081 328.791 443.16C337.064 432.239 352.619 429.922 363.54 438.196C381.411 451.765 400.937 464.341 420.793 475.924C432.707 482.874 436.679 498.097 429.729 510.011C425.096 517.954 416.822 522.256 408.217 522.256Z" fill="#1361A2"/>
</svg>
