<svg width="63" height="67" viewBox="0 0 63 67" fill="none" xmlns="http://www.w3.org/2000/svg">
<g clip-path="url(#clip0_11_16)">
<path fill-rule="evenodd" clip-rule="evenodd" d="M8.17 11.1801C10.2689 10.8688 12.3882 10.7151 14.51 10.7201C17.51 10.7201 19.35 11.0201 20.96 11.9501C21.7514 12.3563 22.4129 12.9767 22.869 13.7404C23.3251 14.5042 23.5576 15.3807 23.54 16.2701C23.54 18.1701 22.41 19.9601 19.96 20.9001V20.9701C21.1861 21.2242 22.2863 21.895 23.0739 22.8684C23.8614 23.8419 24.2876 25.058 24.28 26.3101C24.289 27.2091 24.0907 28.098 23.7005 28.9079C23.3103 29.7178 22.7387 30.4269 22.03 30.9801C20.44 32.2501 17.8 32.9601 13.48 32.9601C11.7044 32.9751 9.93004 32.8648 8.17 32.6301V11.1801ZM13.03 19.5401H14.64C17.26 19.5401 18.61 18.4701 18.61 16.8401C18.61 15.2001 17.35 14.3201 15.13 14.3201C14.4276 14.3051 13.7252 14.3485 13.03 14.4501V19.5401ZM13.03 29.2301C13.6613 29.2929 14.2958 29.3163 14.93 29.3001C17.15 29.3001 19.13 28.4201 19.13 26.1201C19.13 23.9501 17.15 23.0701 14.71 23.0701H13.03V29.2301ZM33.03 10.8901V32.7301H28.13V10.9001H33.03V10.8901ZM56.03 31.7301C53.6935 32.5069 51.2519 32.9217 48.79 32.9601C44.82 32.9601 41.96 31.9601 39.96 30.0401C38.9418 28.9841 38.1456 27.7347 37.6183 26.3658C37.091 24.997 36.8434 23.5363 36.89 22.0701C36.93 14.8101 42.18 10.6601 49.3 10.6601C51.359 10.605 53.4084 10.9585 55.33 11.7001L54.29 15.6801C52.7099 14.9891 50.993 14.6677 49.27 14.7401C45.17 14.7401 42.05 17.0401 42.05 21.8101C42.05 26.3501 44.88 28.9701 48.91 28.9701C49.7171 29.0026 50.5241 28.9047 51.3 28.6801V24.0801H47.95V20.2201H56.03V31.7201V31.7301ZM4.58 48.9301L3.51 52.8001H0L4.56 37.7201H9.01L13.68 52.7901H10.02L8.86 48.9201H4.56L4.58 48.9301ZM8.38 46.3801L7.45 43.1801C7.18 42.2801 6.92 41.1601 6.69 40.2701H6.65C6.43 41.1701 6.2 42.3001 5.96 43.1701L5.07 46.3701H8.38V46.3801ZM16.08 37.9201C17.5954 37.6898 19.1274 37.5861 20.66 37.6101C22.2818 37.4777 23.9005 37.9009 25.25 38.8101C25.7673 39.2317 26.1807 39.7666 26.4581 40.3736C26.7355 40.9805 26.8696 41.6431 26.85 42.3101C26.8834 42.9702 26.7779 43.63 26.5402 44.2467C26.3024 44.8634 25.9379 45.4233 25.47 45.8901C24.103 47.0102 22.3642 47.5743 20.6 47.4701C20.2113 47.4793 19.8226 47.4491 19.44 47.3801V52.8001H16.08V37.9201ZM19.44 44.7701C19.8154 44.8431 20.1978 44.8733 20.58 44.8601C22.38 44.8601 23.49 43.9401 23.49 42.4201C23.49 41.0301 22.53 40.2001 20.82 40.2001C20.3569 40.1871 19.8939 40.2273 19.44 40.3201V44.7701ZM29.16 37.9201C30.6754 37.6899 32.2074 37.5862 33.74 37.6101C35.3619 37.4769 36.9808 37.9001 38.33 38.8101C38.8473 39.2317 39.2607 39.7666 39.5381 40.3736C39.8155 40.9805 39.9496 41.6431 39.93 42.3101C39.9634 42.9702 39.8579 43.63 39.6202 44.2467C39.3824 44.8634 39.0179 45.4233 38.55 45.8901C37.1799 47.0117 35.4375 47.5759 33.67 47.4701C33.2846 47.4787 32.8993 47.4486 32.52 47.3801V52.8001H29.16V37.9201ZM32.52 44.7701C32.8954 44.8432 33.2778 44.8734 33.66 44.8601C35.46 44.8601 36.56 43.9401 36.56 42.4201C36.56 41.0301 35.61 40.2001 33.9 40.2001C33.4369 40.187 32.9739 40.2272 32.52 40.3201V44.7701ZM42.14 37.7201H45.52V49.9301H51.48V52.7901H42.14V37.7201ZM62.06 46.4201H56.54V50.0001H62.7V52.8001H53.16V37.7201H62.39V40.5201H56.54V43.6501H62.06V46.4201ZM8.16 64.8401C8.8346 65.1889 9.58067 65.3771 10.34 65.3901C11.24 65.3901 11.72 65.0101 11.72 64.4401C11.72 63.9001 11.3 63.5801 10.26 63.2201C8.82 62.7001 7.86 61.9001 7.86 60.6201C7.86 59.1401 9.12 58.0201 11.16 58.0201C11.9162 57.9978 12.6678 58.1448 13.36 58.4501L12.93 60.0301C12.3696 59.7567 11.7536 59.6164 11.13 59.6201C10.9918 59.5881 10.8485 59.5847 10.709 59.6102C10.5695 59.6356 10.4366 59.6893 10.3186 59.768C10.2006 59.8467 10.0999 59.9487 10.0227 60.0677C9.9456 60.1867 9.89362 60.3203 9.87 60.4601C9.87 61.0201 10.34 61.2601 11.47 61.6901C13.01 62.2601 13.72 63.0601 13.72 64.2901C13.72 65.7601 12.62 67.0001 10.22 67.0001C9.37311 67.0067 8.53566 66.8221 7.77 66.4601L8.16 64.8401ZM21.51 66.6401C20.8054 66.9106 20.0545 67.0397 19.3 67.0201C16.3 67.0201 14.75 65.1201 14.75 62.6401C14.7187 62.0139 14.8207 61.3882 15.0492 60.8043C15.2777 60.2205 15.6275 59.6918 16.0756 59.2532C16.5236 58.8146 17.0597 58.4761 17.6483 58.2601C18.2369 58.0441 18.8646 57.9555 19.49 58.0001C20.2235 57.9685 20.9548 58.1017 21.63 58.3901L21.23 59.9401C20.7056 59.7159 20.1403 59.6035 19.57 59.6101C18.8075 59.6128 18.0773 59.9182 17.54 60.4593C17.0027 61.0003 16.7023 61.7326 16.705 62.4951C16.7077 63.2576 17.0131 63.9878 17.5541 64.5251C18.0952 65.0624 18.8275 65.3628 19.59 65.3601C20.153 65.3639 20.712 65.2657 21.24 65.0701L21.51 66.6401ZM24.88 58.1401V61.5001H28.11V58.1401H30.07V66.8701H28.11V63.2201H24.88V66.8701H22.92V58.1401H24.88ZM39.83 62.4201C39.83 65.2901 38.11 67.0201 35.56 67.0201C33.01 67.0201 31.48 65.0601 31.48 62.5601C31.48 59.9401 33.15 57.9801 35.7 57.9801C38.38 57.9801 39.83 59.9901 39.83 62.4201ZM33.55 62.5201C33.55 64.2401 34.35 65.4401 35.66 65.4401C36.97 65.4401 37.76 64.1801 37.76 62.4801C37.76 60.9001 37.02 59.5501 35.66 59.5501C34.3 59.5501 33.56 60.8201 33.56 62.5201H33.55ZM49.16 62.4201C49.16 65.2901 47.44 67.0201 44.89 67.0201C42.34 67.0201 40.81 65.0601 40.81 62.5601C40.81 59.9401 42.48 57.9801 45.03 57.9801C47.71 57.9801 49.17 59.9901 49.17 62.4201H49.16ZM42.88 62.5201C42.88 64.2401 43.68 65.4401 44.99 65.4401C46.3 65.4401 47.09 64.1801 47.09 62.4801C47.09 60.9001 46.36 59.5501 45.01 59.5501C43.66 59.5501 42.89 60.8201 42.89 62.5201H42.88ZM50.14 58.1401H52.1V65.2101H55.56V66.8701H50.14V58.1401Z" fill="white"/>
<path fill-rule="evenodd" clip-rule="evenodd" d="M41.85 0.309941C41.85 0.309941 35.25 -0.820059 32.91 1.20994C30.5903 3.29914 28.9527 6.03778 28.21 9.06994C28.21 9.06994 36.15 8.86994 38.29 7.28994C41.65 4.79994 41.85 0.299941 41.85 0.299941V0.309941Z" fill="#B2D236"/>
</g>
<defs>
<clipPath id="clip0_11_16">
<rect width="62.69" height="67" fill="white"/>
</clipPath>
</defs>
</svg>
