<svg width="480" height="482" viewBox="0 0 480 482" fill="none" xmlns="http://www.w3.org/2000/svg">
<path fill-rule="evenodd" clip-rule="evenodd" d="M123.812 107.534C134.526 105.945 145.343 105.16 156.174 105.186C171.488 105.186 180.88 106.717 189.098 111.464C193.138 113.538 196.515 116.704 198.843 120.603C201.171 124.502 202.358 128.976 202.268 133.516C202.268 143.214 196.5 152.351 183.994 157.149V157.507C190.252 158.804 195.869 162.228 199.889 167.197C203.908 172.166 206.084 178.373 206.045 184.765C206.091 189.353 205.079 193.891 203.087 198.025C201.095 202.159 198.177 205.779 194.56 208.603C186.444 215.085 172.968 218.709 150.917 218.709C141.854 218.786 132.796 218.223 123.812 217.025V107.534ZM148.62 150.207H156.838C170.212 150.207 177.103 144.746 177.103 136.425C177.103 128.054 170.671 123.562 159.339 123.562C155.754 123.485 152.168 123.707 148.62 124.226V150.207ZM148.62 199.67C151.842 199.99 155.081 200.11 158.318 200.027C169.65 200.027 179.757 195.535 179.757 183.795C179.757 172.718 169.65 168.226 157.195 168.226H148.62V199.67ZM250.709 106.054V217.535H225.697V106.105H250.709V106.054ZM368.113 212.431C356.186 216.396 343.723 218.514 331.156 218.709C310.891 218.709 296.292 213.605 286.084 203.804C280.886 198.414 276.822 192.037 274.13 185.049C271.439 178.062 270.175 170.606 270.413 163.122C270.617 126.063 297.415 104.88 333.759 104.88C344.269 104.598 354.731 106.403 364.539 110.188L359.231 130.504C351.165 126.977 342.401 125.336 333.606 125.706C312.678 125.706 296.752 137.446 296.752 161.795C296.752 184.969 311.198 198.343 331.769 198.343C335.888 198.508 340.008 198.009 343.968 196.862V173.382H326.868V153.678H368.113V212.38V212.431ZM105.487 300.228L100.025 319.982H82.1084L105.385 243.007H128.1L151.938 319.931H133.255L127.334 300.177H105.385L105.487 300.228ZM124.884 287.212L120.137 270.877C118.759 266.283 117.431 260.566 116.257 256.023H116.053C114.93 260.617 113.756 266.385 112.531 270.826L107.988 287.161H124.884V287.212ZM164.188 244.028C171.924 242.852 179.744 242.323 187.567 242.445C195.846 241.769 204.108 243.929 210.997 248.571C213.637 250.723 215.747 253.453 217.163 256.551C218.58 259.649 219.264 263.032 219.164 266.436C219.334 269.806 218.796 273.174 217.582 276.321C216.369 279.469 214.508 282.327 212.12 284.71C205.142 290.428 196.266 293.307 187.261 292.776C185.277 292.822 183.293 292.668 181.34 292.316V319.982H164.188V244.028ZM181.34 278.993C183.256 279.366 185.208 279.52 187.159 279.453C196.347 279.453 202.013 274.757 202.013 266.998C202.013 259.903 197.112 255.666 188.384 255.666C186.02 255.599 183.656 255.805 181.34 256.278V278.993ZM230.955 244.028C238.691 242.852 246.51 242.323 254.334 242.445C262.613 241.765 270.876 243.926 277.763 248.571C280.404 250.723 282.514 253.453 283.93 256.551C285.346 259.649 286.031 263.032 285.93 266.436C286.101 269.806 285.562 273.174 284.349 276.321C283.135 279.469 281.274 282.327 278.886 284.71C271.893 290.436 262.998 293.315 253.976 292.776C252.009 292.82 250.043 292.666 248.106 292.316V319.982H230.955V244.028ZM248.106 278.993C250.022 279.366 251.974 279.521 253.925 279.453C263.113 279.453 268.728 274.757 268.728 266.998C268.728 259.903 263.879 255.666 255.15 255.666C252.787 255.599 250.423 255.804 248.106 256.278V278.993ZM297.211 243.007H314.464V305.333H344.887V319.931H297.211V243.007ZM398.893 287.416H370.716V305.69H402.159V319.982H353.463V243.007H400.577V257.299H370.716V273.276H398.893V287.416ZM123.761 381.44C127.204 383.221 131.013 384.182 134.889 384.248C139.483 384.248 141.933 382.308 141.933 379.399C141.933 376.642 139.789 375.009 134.48 373.171C127.13 370.517 122.23 366.433 122.23 359.899C122.23 352.345 128.661 346.628 139.074 346.628C142.934 346.514 146.771 347.264 150.304 348.823L148.109 356.888C145.249 355.492 142.104 354.776 138.921 354.795C138.216 354.632 137.485 354.614 136.772 354.744C136.06 354.874 135.382 355.148 134.779 355.55C134.177 355.951 133.663 356.472 133.269 357.08C132.876 357.687 132.61 358.369 132.49 359.083C132.49 361.941 134.889 363.166 140.657 365.361C148.518 368.271 152.142 372.354 152.142 378.633C152.142 386.137 146.527 392.466 134.276 392.466C129.953 392.5 125.679 391.557 121.77 389.71L123.761 381.44ZM191.906 390.628C188.309 392.009 184.476 392.668 180.625 392.568C165.311 392.568 157.4 382.87 157.4 370.211C157.24 367.014 157.76 363.82 158.927 360.84C160.093 357.859 161.879 355.161 164.166 352.922C166.453 350.683 169.189 348.955 172.194 347.853C175.198 346.75 178.402 346.298 181.595 346.526C185.339 346.364 189.072 347.045 192.518 348.516L190.477 356.428C187.8 355.284 184.914 354.71 182.003 354.744C178.111 354.757 174.384 356.317 171.641 359.078C168.898 361.84 167.365 365.578 167.379 369.47C167.392 373.363 168.951 377.09 171.713 379.832C174.475 382.575 178.213 384.108 182.105 384.095C184.979 384.114 187.833 383.613 190.528 382.614L191.906 390.628ZM209.108 347.24V364.391H225.595V347.24H235.6V391.803H225.595V373.171H209.108V391.803H199.103V347.24H209.108ZM285.42 369.088C285.42 383.737 276.64 392.568 263.624 392.568C250.607 392.568 242.798 382.563 242.798 369.802C242.798 356.428 251.322 346.424 264.338 346.424C278.018 346.424 285.42 356.684 285.42 369.088ZM253.364 369.598C253.364 378.378 257.447 384.503 264.134 384.503C270.821 384.503 274.854 378.071 274.854 369.394C274.854 361.329 271.076 354.438 264.134 354.438C257.192 354.438 253.415 360.92 253.415 369.598H253.364ZM333.045 369.088C333.045 383.737 324.265 392.568 311.249 392.568C298.232 392.568 290.422 382.563 290.422 369.802C290.422 356.428 298.947 346.424 311.963 346.424C325.643 346.424 333.096 356.684 333.096 369.088H333.045ZM300.989 369.598C300.989 378.378 305.072 384.503 311.759 384.503C318.446 384.503 322.478 378.071 322.478 369.394C322.478 361.329 318.752 354.438 311.861 354.438C304.97 354.438 301.04 360.92 301.04 369.598H300.989ZM338.047 347.24H348.052V383.329H365.713V391.803H338.047V347.24Z" fill="#ff7070"/>
<path fill-rule="evenodd" clip-rule="evenodd" d="M295.731 52.05C295.731 52.05 262.041 46.2819 250.097 56.644C238.256 67.3083 229.897 81.2877 226.105 96.7653C226.105 96.7653 266.635 95.7444 277.559 87.6793C294.71 74.9691 295.731 51.999 295.731 51.999V52.05Z" fill="#B2D236"/>
<path d="M13.1087 166.967L13.1086 61.9669C13.1086 34.3527 35.4943 11.9669 63.1086 11.9669L154.608 11.9669" stroke="#ff7070" stroke-width="20" stroke-linecap="round"/>
<path d="M466.608 166.967L466.608 61.9669C466.608 34.3527 444.222 11.9669 416.608 11.9669L325.108 11.9669" stroke="#ff7070" stroke-width="20" stroke-linecap="round"/>
<path d="M13.1087 314.317L13.1086 419.317C13.1086 446.931 35.4943 469.317 63.1086 469.317L154.608 469.317" stroke="#ff7070" stroke-width="20" stroke-linecap="round"/>
<path d="M466.608 314.317L466.608 419.317C466.608 446.931 444.222 469.317 416.608 469.317L325.108 469.317" stroke="#ff7070" stroke-width="20" stroke-linecap="round"/>
</svg>
