<svg width="29" height="32" viewBox="0 0 29 32" fill="none" xmlns="http://www.w3.org/2000/svg">
<path fill-rule="evenodd" clip-rule="evenodd" d="M27.413 27.5831V20.8831C27.7591 20.8831 28.0911 21.0206 28.3359 21.2653C28.5807 21.5101 28.7182 21.8421 28.7182 22.1883V26.2779C28.7182 26.624 28.5807 26.956 28.3359 27.2008C28.0911 27.4455 27.7591 27.5831 27.413 27.5831ZM0.00390625 26.2779V22.1883C0.00390625 21.8421 0.14141 21.5101 0.386181 21.2653C0.630953 21.0206 0.962942 20.8831 1.3091 20.8831V27.5831C0.962942 27.5831 0.630953 27.4455 0.386181 27.2008C0.14141 26.956 0.00390625 26.624 0.00390625 26.2779Z" fill="#3A474A"/>
<path fill-rule="evenodd" clip-rule="evenodd" d="M22.6273 17.8376V30.4545C23.3754 30.4524 24.1093 30.2495 24.7521 29.8668C25.395 29.4841 25.9233 28.9358 26.2818 28.2791C26.4168 28.3453 26.5667 28.3752 26.7168 28.3662H26.8909C27.026 28.3662 27.1592 28.3347 27.28 28.2743C27.4008 28.2139 27.5059 28.1262 27.587 28.0181C27.7564 27.7922 27.848 27.5174 27.848 27.235V15.2272H27.413C27.2976 15.2272 27.187 15.1814 27.1054 15.0998C27.0238 15.0182 26.9779 14.9075 26.9779 14.7921V14.6181C26.9779 7.39603 21.9312 1.56616 14.7091 1.56616C13.0032 1.56601 11.3143 1.90478 9.74038 2.56281C8.16651 3.22084 6.73911 4.18502 5.54099 5.39933C4.34286 6.61365 3.39792 8.05392 2.76107 9.63648C2.12423 11.219 1.80809 12.9124 1.83114 14.6181V14.7921C1.83114 14.9075 1.78538 15.0182 1.70379 15.0998C1.6222 15.1814 1.51147 15.2272 1.39608 15.2272H0.874023V27.235C0.874023 27.5174 0.965662 27.7922 1.1351 28.0181C1.21615 28.1262 1.32125 28.2139 1.44207 28.2743C1.56289 28.3347 1.69606 28.3662 1.83114 28.3662H2.00523C2.15534 28.3752 2.30523 28.3453 2.4403 28.2791C2.79878 28.9358 3.32705 29.4841 3.96993 29.8668C4.61281 30.2495 5.34666 30.4524 6.0948 30.4545V17.8376C4.79717 17.8285 3.54766 18.3283 2.61428 19.2298V15.7493C2.85146 15.7141 3.0744 15.6143 3.2586 15.4609C3.44279 15.3074 3.58106 15.1061 3.6584 14.8791V14.7051C3.65859 13.2322 3.95098 11.774 4.51854 10.4148C5.0861 9.05566 5.9176 7.82258 6.96493 6.78694C7.96198 5.73674 9.16337 4.90164 10.4952 4.33301C11.827 3.76438 13.261 3.47424 14.7091 3.48045C17.8416 3.48045 19.6688 4.69863 21.7571 6.78694C22.8045 7.82258 23.636 9.05566 24.2035 10.4148C24.7711 11.774 25.0635 13.2322 25.0637 14.7051V14.7921C25.1316 15.0245 25.2671 15.2314 25.4531 15.3864C25.639 15.5413 25.867 15.6374 26.1078 15.6623V19.3168C25.6555 18.8507 25.1146 18.4798 24.5169 18.2258C23.9192 17.9717 23.2767 17.8398 22.6273 17.8376Z" fill="#CDD7DE"/>
<path fill-rule="evenodd" clip-rule="evenodd" d="M28.5439 15.2273C28.5453 15.2925 28.5318 15.3572 28.5047 15.4166C28.4777 15.476 28.4376 15.5285 28.3875 15.5703C28.3373 15.6121 28.2784 15.6421 28.2151 15.658C28.1518 15.6739 28.0857 15.6754 28.0218 15.6623H27.1516C27.0363 15.6623 26.9256 15.6165 26.844 15.5349C26.7624 15.4533 26.7166 15.3427 26.7166 15.2273C26.7224 15.1694 26.7224 15.1111 26.7166 15.0532C26.7166 7.91818 21.7568 1.74026 14.5348 1.74026C7.31268 1.74026 1.74389 7.83117 1.74389 15.0532V15.2273C1.74389 15.3427 1.69802 15.4533 1.61643 15.5349C1.53484 15.6165 1.42421 15.6623 1.30883 15.6623H0.438697C0.32331 15.6623 0.212683 15.6165 0.131092 15.5349C0.0495018 15.4533 0.00363186 15.3427 0.00363186 15.2273C-0.00121062 15.1694 -0.00121062 15.1112 0.00363186 15.0532C0.00363186 6.87402 6.35562 0 14.6219 0C22.8881 0 28.5439 6.96104 28.5439 15.0532V15.2273ZM5.05043 17.2286H6.44261C7.02785 17.2281 7.59043 17.4545 8.01229 17.8601C8.43414 18.2658 8.68242 18.8191 8.70493 19.4039V28.9753C8.68242 29.5601 8.43414 30.1134 8.01229 30.5191C7.59043 30.9247 7.02785 31.1511 6.44261 31.1506H5.05043C4.86581 31.1506 4.68876 31.0773 4.55822 30.9468C4.42767 30.8162 4.35428 30.6392 4.35428 30.4545V17.9247C4.35428 17.7401 4.42767 17.563 4.55822 17.4325C4.68876 17.3019 4.86581 17.2286 5.05043 17.2286ZM22.2789 17.2286H23.6711C23.8557 17.2286 24.0328 17.3019 24.1633 17.4325C24.2939 17.563 24.3673 17.7401 24.3673 17.9247V30.4545C24.3673 30.6392 24.2939 30.8162 24.1633 30.9468C24.0328 31.0773 23.8557 31.1506 23.6711 31.1506H22.2789C21.6789 31.1506 21.1035 30.9123 20.6792 30.488C20.2549 30.0637 20.0166 29.4883 20.0166 28.8883V19.4039C20.0391 18.8191 20.2874 18.2658 20.7093 17.8601C21.1311 17.4545 21.6937 17.2281 22.2789 17.2286Z" fill="#3A474A"/>
</svg>
