<svg width="31" height="30" viewBox="0 0 31 30" fill="none" xmlns="http://www.w3.org/2000/svg">
<path fill-rule="evenodd" clip-rule="evenodd" d="M2.94715 0H27.5596C28.3581 0.0159474 29.1176 0.348136 29.6714 0.923615C30.2251 1.49909 30.5277 2.27081 30.5129 3.0693V26.0911C30.5277 26.8896 30.2251 27.6613 29.6714 28.2368C29.1176 28.8123 28.3581 29.1444 27.5596 29.1604H2.94715C2.55212 29.1524 2.16255 29.0667 1.80066 28.9081C1.43877 28.7495 1.11163 28.5212 0.838004 28.2362C0.564378 27.9512 0.349578 27.615 0.205893 27.247C0.0622092 26.8789 -0.00748676 26.4861 0.000657302 26.0911V3.0693C-0.00748676 2.67427 0.0622092 2.28151 0.205893 1.91345C0.349578 1.54539 0.564378 1.20926 0.838004 0.924229C1.11163 0.639201 1.43877 0.41087 1.80066 0.252289C2.16255 0.0937073 2.55212 0.00797954 2.94715 0Z" fill="#816952"/>
<path fill-rule="evenodd" clip-rule="evenodd" d="M1.07488 27.6837H29.3602C29.4999 27.6801 29.639 27.7046 29.7692 27.7556C29.8994 27.8066 30.018 27.8832 30.1182 27.9808C30.2183 28.0784 30.2979 28.1951 30.3522 28.3239C30.4065 28.4528 30.4345 28.5912 30.4345 28.731C30.4345 28.8708 30.4065 29.0092 30.3522 29.1381C30.2979 29.2669 30.2183 29.3836 30.1182 29.4812C30.018 29.5788 29.8994 29.6554 29.7692 29.7064C29.639 29.7574 29.4999 29.7819 29.3602 29.7783H1.07488C0.935092 29.7819 0.796006 29.7574 0.66582 29.7064C0.535634 29.6554 0.416921 29.5788 0.316793 29.4812C0.216666 29.3836 0.137083 29.2669 0.0827493 29.1381C0.0284158 29.0092 0.000488281 28.8708 0.000488281 28.731C0.000488281 28.5912 0.0284158 28.4528 0.0827493 28.3239C0.137083 28.1951 0.216666 28.0784 0.316793 27.9808C0.416921 27.8832 0.535634 27.8066 0.66582 27.7556C0.796006 27.7046 0.935092 27.6801 1.07488 27.6837Z" fill="#483A2D"/>
<path fill-rule="evenodd" clip-rule="evenodd" d="M6.01301 2.41223H24.7017C25.4994 2.42853 26.258 2.76107 26.8106 3.33667C27.3631 3.91227 27.6644 4.68379 27.6481 5.48153V23.2583C27.6563 23.6533 27.5865 24.046 27.4428 24.4141C27.2991 24.7821 27.0843 25.1183 26.8107 25.4033C26.5371 25.6884 26.21 25.9167 25.8482 26.0753C25.4863 26.2338 25.0967 26.3196 24.7017 26.3276H6.01301C5.21455 26.3116 4.45503 25.9794 3.90129 25.4039C3.34755 24.8284 3.04481 24.0567 3.05961 23.2583V5.48222C3.04463 4.68361 3.34728 3.91171 3.90104 3.33609C4.4548 2.76046 5.21443 2.42818 6.01301 2.41223Z" fill="#6C5641"/>
<path fill-rule="evenodd" clip-rule="evenodd" d="M25.7725 26.1129C25.4329 26.2536 25.0693 26.3273 24.7016 26.3297H6.013C5.21454 26.3138 4.45501 25.9816 3.90128 25.4061C3.34754 24.8307 3.0448 24.0589 3.0596 23.2604V5.48238C3.05873 5.019 3.16184 4.56135 3.36133 4.14312C3.56083 3.72489 3.85167 3.35674 4.21234 3.06582C4.55206 2.92556 4.91561 2.85215 5.28314 2.84961H23.9718C24.7703 2.86556 25.5298 3.19774 26.0835 3.77321C26.6373 4.34869 26.9399 5.12042 26.9251 5.91891V23.6963C26.9261 24.1597 26.823 24.6174 26.6235 25.0356C26.424 25.4539 26.1332 25.822 25.7725 26.1129Z" fill="#7EC093"/>
<path fill-rule="evenodd" clip-rule="evenodd" d="M23.6243 14.9582C17.9563 13.1166 12.2884 17.4007 6.62725 15.5598C6.39939 15.4676 6.20286 15.3118 6.06133 15.1108C5.91979 14.9099 5.83921 14.6724 5.8292 14.4269C5.82207 14.3296 5.84092 14.2323 5.88382 14.1447C5.92672 14.0572 5.9921 13.9826 6.07332 13.9287C6.15453 13.8747 6.24866 13.8434 6.34599 13.8378C6.44332 13.8322 6.5404 13.8526 6.62725 13.8969C12.2884 15.7385 17.9563 11.4544 23.6243 13.2953C23.8522 13.3874 24.0487 13.5432 24.1903 13.7441C24.3318 13.9451 24.4124 14.1826 24.4223 14.4282C24.4295 14.5254 24.4106 14.6228 24.3677 14.7104C24.3248 14.7979 24.2594 14.8725 24.1782 14.9264C24.097 14.9803 24.0029 15.0117 23.9055 15.0173C23.8082 15.0229 23.7111 15.0025 23.6243 14.9582ZM23.6243 9.84268C17.9563 8.0011 12.2884 12.2852 6.62725 10.4443C6.39934 10.3522 6.20279 10.1964 6.06124 9.99543C5.9197 9.79448 5.83913 9.55696 5.8292 9.31136C5.82197 9.21412 5.84075 9.1167 5.88365 9.02913C5.92655 8.94156 5.99197 8.86701 6.07323 8.81311C6.15449 8.75922 6.24864 8.72794 6.34599 8.72248C6.44335 8.71703 6.54047 8.7376 6.62725 8.78208C12.2884 10.6237 17.9563 6.3389 23.6243 8.18048C23.8523 8.27246 24.0488 8.42831 24.1904 8.62927C24.3319 8.83024 24.4125 9.06778 24.4223 9.3134C24.4294 9.41059 24.4105 9.50791 24.3676 9.59538C24.3246 9.68285 24.2591 9.7573 24.1779 9.81111C24.0967 9.86492 24.0026 9.89614 23.9053 9.90157C23.808 9.907 23.711 9.88644 23.6243 9.842V9.84268ZM6.62725 19.0138C12.2884 20.8553 17.9563 16.5713 23.6243 18.4122C23.8522 18.504 24.0487 18.6597 24.1903 18.8606C24.3319 19.0614 24.4125 19.2989 24.4223 19.5444C24.4296 19.6417 24.4108 19.7392 24.368 19.8268C24.3251 19.9144 24.2597 19.9891 24.1785 20.0431C24.0972 20.0971 24.0031 20.1286 23.9057 20.1342C23.8083 20.1398 23.7112 20.1194 23.6243 20.0751C17.9563 18.2335 12.2884 22.5175 6.62725 20.6759C6.39934 20.5839 6.20279 20.428 6.06124 20.2271C5.9197 20.0261 5.83913 19.7886 5.8292 19.543C5.82184 19.4458 5.84056 19.3482 5.8834 19.2606C5.92624 19.1729 5.99162 19.0982 6.0729 19.0443C6.15418 18.9903 6.24841 18.9589 6.34583 18.9535C6.44325 18.948 6.54042 18.9686 6.62725 19.0131V19.0138Z" fill="white"/>
<path fill-rule="evenodd" clip-rule="evenodd" d="M17.1038 26.226H25.575C25.8529 26.226 26.1194 26.3363 26.3159 26.5328C26.5124 26.7293 26.6227 26.9958 26.6227 27.2736C26.6227 27.5515 26.5124 27.8179 26.3159 28.0144C26.1194 28.2109 25.8529 28.3213 25.575 28.3213H17.1038C16.826 28.3213 16.5594 28.2109 16.363 28.0144C16.1665 27.8179 16.0562 27.5515 16.0562 27.2736C16.0562 26.9958 16.1665 26.7293 16.363 26.5328C16.5594 26.3363 16.826 26.226 17.1038 26.226Z" fill="white"/>
<path fill-rule="evenodd" clip-rule="evenodd" d="M5.93131 25.8434H12.6292C12.977 25.8434 13.3106 25.9816 13.5566 26.2275C13.8026 26.4735 13.9408 26.8071 13.9408 27.155C13.9408 27.5028 13.8026 27.8365 13.5566 28.0824C13.3106 28.3284 12.977 28.4666 12.6292 28.4666H5.93131C5.58345 28.4666 5.24977 28.3284 5.00379 28.0824C4.75782 27.8365 4.61963 27.5028 4.61963 27.155C4.61963 26.8071 4.75782 26.4735 5.00379 26.2275C5.24977 25.9816 5.58345 25.8434 5.93131 25.8434Z" fill="#504F4F"/>
<path fill-rule="evenodd" clip-rule="evenodd" d="M13.8705 27.301C13.8909 27.301 13.9114 27.301 13.925 27.3051C13.8893 27.6239 13.7374 27.9183 13.4984 28.1322C13.2593 28.3461 12.9498 28.4644 12.629 28.4646H5.93119C5.60885 28.464 5.29801 28.3449 5.05779 28.1299C4.81757 27.915 4.66473 27.6192 4.62842 27.299H13.8705V27.301Z" fill="#979695"/>
</svg>
