<svg width="47" height="24" viewBox="0 0 47 24" fill="none" xmlns="http://www.w3.org/2000/svg">
<path d="M9.89233 7.32471H37.2278L37.9829 16.4617C37.9829 16.4617 30.2807 19.7087 22.8805 19.7087C15.9333 19.7087 9.13721 16.5372 9.13721 16.5372L9.89233 7.32471Z" fill="#0B538E"/>
<path d="M9.66553 9.96764L9.89206 7.32471H37.2276L37.4541 9.81662L23.3333 15.6311L9.66553 9.96764Z" fill="#083F6C"/>
<path d="M0 4.98382L23.3333 0L46.6667 4.98382L23.3333 14.5739L0 4.98382Z" fill="#1361A2"/>
<path d="M6.94743 18.1985L8.30665 23.1068H5.5127L6.94743 18.1985Z" fill="#CC8600"/>
<path d="M23.1066 4.68164C22.2004 4.68164 21.5208 4.90818 21.2187 5.28574L6.56934 7.02253V20.2372H7.32446V7.70214L21.2943 6.04086C21.5963 6.34291 22.3514 6.56945 23.1066 6.56945C24.2392 6.56945 25.1454 6.11638 25.1454 5.58779C25.1454 5.0592 24.2392 4.68164 23.1066 4.68164Z" fill="#F4B621"/>
</svg>
