<svg width="31" height="32" viewBox="0 0 31 32" fill="none" xmlns="http://www.w3.org/2000/svg">
<path fill-rule="evenodd" clip-rule="evenodd" d="M30.0172 5.37015V30.5783C30.0172 30.7761 29.9386 30.9658 29.7987 31.1057C29.6589 31.2455 29.4692 31.3241 29.2714 31.3241H4.65987C4.46207 31.3241 4.27237 31.2455 4.1325 31.1057C3.99264 30.9658 3.91406 30.7761 3.91406 30.5783V0.746169C3.91406 0.54837 3.99264 0.358672 4.1325 0.218807C4.27237 0.0789417 4.46207 0.000366211 4.65987 0.000366211L24.722 0.000366211L30.0172 5.37015Z" fill="#EFF3F6"/>
<path fill-rule="evenodd" clip-rule="evenodd" d="M30.017 5.22074H25.5422C25.3444 5.22074 25.1547 5.14217 25.0148 5.0023C24.875 4.86244 24.7964 4.67274 24.7964 4.47494V0.00012207L30.017 5.22074Z" fill="#D2DCE3"/>
<path fill-rule="evenodd" clip-rule="evenodd" d="M9.43318 5.2207H23.3797C23.5775 5.2207 23.7672 5.29928 23.9071 5.43914C24.0469 5.57901 24.1255 5.76871 24.1255 5.96651C24.1255 6.16431 24.0469 6.354 23.9071 6.49387C23.7672 6.63373 23.5775 6.71231 23.3797 6.71231H9.3586C9.1608 6.71231 8.9711 6.63373 8.83123 6.49387C8.69137 6.354 8.61279 6.16431 8.61279 5.96651C8.61279 5.76871 8.69137 5.57901 8.83123 5.43914C8.9711 5.29928 9.1608 5.2207 9.3586 5.2207H9.43318ZM9.43318 10.4413H23.3797C23.5775 10.4413 23.7672 10.5199 23.9071 10.6598C24.0469 10.7996 24.1255 10.9893 24.1255 11.1871C24.1255 11.3849 24.0469 11.5746 23.9071 11.7145C23.7672 11.8544 23.5775 11.9329 23.3797 11.9329H9.3586C9.1608 11.9329 8.9711 11.8544 8.83123 11.7145C8.69137 11.5746 8.61279 11.3849 8.61279 11.1871C8.61279 10.9893 8.69137 10.7996 8.83123 10.6598C8.9711 10.5199 9.1608 10.4413 9.3586 10.4413H9.43318ZM9.43318 15.6619H23.3797C23.5775 15.6619 23.7672 15.7405 23.9071 15.8804C24.0469 16.0203 24.1255 16.2099 24.1255 16.4077C24.1255 16.6055 24.0469 16.7952 23.9071 16.9351C23.7672 17.075 23.5775 17.1536 23.3797 17.1536H9.3586C9.1608 17.1536 8.9711 17.075 8.83123 16.9351C8.69137 16.7952 8.61279 16.6055 8.61279 16.4077C8.61279 16.2099 8.69137 16.0203 8.83123 15.8804C8.9711 15.7405 9.1608 15.6619 9.3586 15.6619H9.43318ZM9.43318 20.8826H23.3797C23.5775 20.8826 23.7672 20.9611 23.9071 21.101C24.0469 21.2409 24.1255 21.4306 24.1255 21.6284C24.1255 21.8262 24.0469 22.0159 23.9071 22.1557C23.7672 22.2956 23.5775 22.3742 23.3797 22.3742H9.3586C9.1608 22.3742 8.9711 22.2956 8.83123 22.1557C8.69137 22.0159 8.61279 21.8262 8.61279 21.6284C8.61279 21.4306 8.69137 21.2409 8.83123 21.101C8.9711 20.9611 9.1608 20.8826 9.3586 20.8826H9.43318ZM9.43318 26.1032H16.5183C16.7161 26.1032 16.9058 26.1818 17.0457 26.3216C17.1855 26.4615 17.2641 26.6512 17.2641 26.849C17.2641 27.0468 17.1855 27.2365 17.0457 27.3764C16.9058 27.5162 16.7161 27.5948 16.5183 27.5948H9.43318C9.23538 27.5948 9.04568 27.5162 8.90581 27.3764C8.76595 27.2365 8.68737 27.0468 8.68737 26.849C8.68737 26.6512 8.76595 26.4615 8.90581 26.3216C9.04568 26.1818 9.23538 26.1032 9.43318 26.1032Z" fill="#C4D2DD"/>
<path opacity="0.1" fill-rule="evenodd" clip-rule="evenodd" d="M25.5302 26.9086L18.7326 28.718L3.9917 21.7267V13.9103L23.3916 22.4938L25.5302 26.9086Z" fill="black"/>
<path fill-rule="evenodd" clip-rule="evenodd" d="M1.71503 9.50172L0.447805 8.15995C0.159709 7.84411 0 7.43203 0 7.00454C0 6.57704 0.159709 6.16496 0.447805 5.84912L3.95132 2.27106C4.25852 1.96608 4.67385 1.79492 5.10673 1.79492C5.53962 1.79492 5.95495 1.96608 6.26215 2.27106L7.60392 3.61284C7.9136 3.93264 8.08675 4.36035 8.08675 4.80552C8.08675 5.25069 7.9136 5.67841 7.60392 5.99821L4.1004 9.50172C3.94711 9.66416 3.76225 9.79357 3.55716 9.88202C3.35207 9.97047 3.13107 10.0161 2.90772 10.0161C2.68437 10.0161 2.46337 9.97047 2.25828 9.88202C2.05319 9.79357 1.86833 9.66416 1.71503 9.50172Z" fill="#EF63A4"/>
<path fill-rule="evenodd" clip-rule="evenodd" d="M4.77129 5.84908C5.07628 6.15628 5.24743 6.57161 5.24743 7.00449C5.24743 7.43738 5.07628 7.85271 4.77129 8.15991L2.90772 10.0235C2.68383 10.0225 2.4625 9.97574 2.25738 9.88599C2.05226 9.79625 1.86769 9.66546 1.71503 9.50168L0.447805 8.15991C0.159709 7.84407 0 7.43199 0 7.00449C0 6.57699 0.159709 6.16492 0.447805 5.84908L2.60955 3.61279L4.77129 5.84908Z" fill="#D9488B"/>
<path fill-rule="evenodd" clip-rule="evenodd" d="M19.5309 27.3918L3.20605 10.9924L9.0204 5.02893L25.4198 21.5774L25.8671 27.7645L19.5309 27.3918Z" fill="#FFC80F"/>
<path fill-rule="evenodd" clip-rule="evenodd" d="M3.20605 10.9924L5.21871 8.97974L22.7363 26.6464L21.8418 27.5409L19.6055 27.3918L3.20605 10.9924Z" fill="#E8B721"/>
<path fill-rule="evenodd" clip-rule="evenodd" d="M24.9725 24.4848L7.38037 6.81812L9.02031 5.10364L25.4197 21.5031L25.5688 23.8139L24.9725 24.4848Z" fill="#FCD864"/>
<path fill-rule="evenodd" clip-rule="evenodd" d="M19.5306 27.392L19.4561 27.3175L25.2704 21.4286L25.4195 21.5777L25.8667 27.7647L19.5306 27.392Z" fill="#FBF3D8"/>
<path fill-rule="evenodd" clip-rule="evenodd" d="M25.7923 26.3484L25.8668 27.8392L24.376 27.6902L25.7923 26.3484Z" fill="black"/>
<path fill-rule="evenodd" clip-rule="evenodd" d="M3.20585 11.4397L0.89502 9.05436L7.23116 2.64368L9.61653 5.02905L3.20585 11.4397Z" fill="white"/>
<path fill-rule="evenodd" clip-rule="evenodd" d="M0.89502 9.05451L3.72765 6.14734L6.11302 8.53271L3.20585 11.4399L0.89502 9.05451Z" fill="#EBEAEA"/>
</svg>
