<svg width="38" height="27" viewBox="0 0 38 27" fill="none" xmlns="http://www.w3.org/2000/svg">
<path d="M0 4C0 1.79086 1.79086 0 4 0H33.6923C35.9014 0 37.6923 1.79086 37.6923 4V22.9231C37.6923 25.1322 35.9015 26.9231 33.6923 26.9231H4C1.79087 26.9231 0 25.1322 0 22.9231V4Z" fill="#798899"/>
<path d="M1.79492 4.79492C1.79492 3.13807 3.13807 1.79492 4.79492 1.79492H32.8975C34.5543 1.79492 35.8975 3.13807 35.8975 4.79492V22.1283C35.8975 23.7851 34.5543 25.1283 32.8975 25.1283H4.79492C3.13807 25.1283 1.79492 23.7851 1.79492 22.1283V4.79492Z" fill="#1C2024"/>
<circle cx="19.2948" cy="12.1153" r="5.83333" fill="#D71C63"/>
<path d="M18.2158 9.65828L21.7437 11.6199C22.1392 11.8398 22.1392 12.4382 21.7437 12.6581L18.2158 14.6197C17.846 14.8253 17.4019 14.542 17.4019 14.1006V10.1774C17.4019 9.73596 17.846 9.45267 18.2158 9.65828Z" fill="white"/>
<path fill-rule="evenodd" clip-rule="evenodd" d="M4.4873 21.9872C4.4873 21.7394 4.66588 21.5385 4.88617 21.5385H32.8064C33.0267 21.5385 33.2053 21.7394 33.2053 21.9872C33.2053 22.235 33.0267 22.4359 32.8064 22.4359H4.88617C4.66588 22.4359 4.4873 22.235 4.4873 21.9872Z" fill="#434A52"/>
<path fill-rule="evenodd" clip-rule="evenodd" d="M4.4873 21.9872C4.4873 21.7394 4.54869 21.5385 4.62441 21.5385H14.222C14.2977 21.5385 14.3591 21.7394 14.3591 21.9872C14.3591 22.235 14.2977 22.4359 14.222 22.4359H4.62441C4.54869 22.4359 4.4873 22.235 4.4873 21.9872Z" fill="#D71C63"/>
<circle cx="13.9101" cy="21.9871" r="1.34615" fill="white"/>
</svg>
