<svg width="800" height="800" viewBox="0 0 800 800" fill="none" xmlns="http://www.w3.org/2000/svg">
<path d="M750.307 82.2561H49.692C31.0847 82.2561 15.9997 97.3401 15.9997 115.947V552.286C15.9997 570.894 31.0847 585.978 49.692 585.978H750.307C768.916 585.978 784 570.894 784 552.286V115.948C784 97.3401 768.916 82.2561 750.307 82.2561Z" fill="#E7E3E6"/>
<path d="M741.415 122.612H58.5874V502.593H741.415V122.612Z" fill="white"/>
<path d="M118.185 141.847C116.391 141.847 114.596 142.532 113.227 143.901C110.487 146.641 110.487 151.078 113.227 153.818L134.876 175.467L113.227 197.117C110.487 199.856 110.487 204.294 113.227 207.033C115.966 209.773 120.404 209.773 123.143 207.033L149.751 180.425C152.49 177.686 152.49 173.249 149.751 170.509L123.143 143.901C121.773 142.532 119.979 141.847 118.185 141.847Z" fill="#85BD57"/>
<path d="M179.72 161.438C175.849 161.438 172.708 164.579 172.708 168.45C172.708 172.322 175.846 175.463 179.72 175.463L217.356 175.467C221.228 175.467 224.369 172.331 224.369 168.455C224.369 164.583 221.23 161.442 217.356 161.442L179.72 161.438Z" fill="#53B1E2"/>
<path fill-rule="evenodd" clip-rule="evenodd" d="M200.5 441.75C200.5 321.214 298.214 223.5 418.75 223.5C539.287 223.5 637 321.214 637 441.75C637 502.026 612.597 556.554 573.077 596.077C563.605 605.547 563.605 620.899 573.077 630.371C582.547 639.841 597.899 639.841 607.371 630.371C655.617 582.126 685.5 515.405 685.5 441.75C685.5 294.428 566.071 175 418.75 175C271.428 175 152 294.428 152 441.75C152 515.405 181.884 582.126 230.129 630.371C239.599 639.841 254.954 639.841 264.424 630.371C273.894 620.899 273.894 605.547 264.424 596.077C224.902 556.554 200.5 502.026 200.5 441.75ZM297.5 441.75C297.5 374.786 351.786 320.5 418.75 320.5C485.714 320.5 540 374.786 540 441.75C540 475.239 526.456 505.518 504.486 527.486C495.016 536.958 495.016 552.311 504.486 561.78C513.958 571.252 529.311 571.252 538.78 561.78C569.473 531.089 588.5 488.618 588.5 441.75C588.5 348 512.5 272 418.75 272C325 272 249 348 249 441.75C249 488.618 268.027 531.089 298.719 561.78C308.189 571.252 323.543 571.252 333.013 561.78C342.484 552.311 342.484 536.958 333.013 527.486C311.045 505.518 297.5 475.239 297.5 441.75ZM479.375 441.75C479.375 475.232 452.232 502.375 418.75 502.375C385.268 502.375 358.125 475.232 358.125 441.75C358.125 408.268 385.268 381.125 418.75 381.125C452.232 381.125 479.375 408.268 479.375 441.75ZM362.325 574.979C360.054 542.278 385.969 514.5 418.75 514.5C451.531 514.5 477.447 542.278 475.175 574.979L467.369 687.39C465.594 712.935 444.356 732.75 418.75 732.75C393.144 732.75 371.906 712.935 370.131 687.39L362.325 574.979Z" fill="#1361A2"/>
</svg>
