<svg width="48" height="48" viewBox="0 0 48 48" fill="none" xmlns="http://www.w3.org/2000/svg">
<path fill-rule="evenodd" clip-rule="evenodd" d="M20.6756 2.50001C20.7076 2.50001 20.7396 2.50003 20.7718 2.50003H27.2278C27.26 2.50003 27.2922 2.50001 27.324 2.50001C28.3662 2.49991 29.2988 2.49983 30.0528 2.60481C30.8786 2.71981 31.7078 2.98565 32.38 3.68179C33.0452 4.37057 33.2922 5.20761 33.4 6.03745C33.5 6.80765 33.4998 7.76393 33.4998 8.84965V12.2848H30.4998V8.94183C30.4998 7.73605 30.4968 6.97749 30.425 6.42369C30.358 5.90781 30.2556 5.80061 30.222 5.76569C30.2214 5.76507 30.2208 5.76443 30.22 5.76375C30.1914 5.73385 30.1022 5.64063 29.639 5.57615C29.1168 5.50343 28.3966 5.50003 27.2278 5.50003H20.7718C19.6031 5.50003 18.8828 5.50343 18.3605 5.57615C17.8974 5.64063 17.8081 5.73385 17.7795 5.76375C17.7789 5.76443 17.7782 5.76507 17.7776 5.76569C17.7439 5.80061 17.6416 5.90781 17.5746 6.42369C17.5027 6.97749 17.4998 7.73605 17.4998 8.94183V12.2848H14.4998V8.94183C14.4998 8.91099 14.4998 8.88025 14.4998 8.84963C14.4997 7.76391 14.4996 6.80765 14.5996 6.03745C14.7073 5.20761 14.9544 4.37057 15.6196 3.68179C16.2918 2.98565 17.1209 2.71981 17.9468 2.60481C18.7008 2.49983 19.6334 2.49991 20.6756 2.50001Z" fill="#ffff"/>
<path d="M38.217 31.267C37.6304 36.5768 37.3372 39.2316 35.8384 41.0644C35.3144 41.7052 34.694 42.2608 33.9994 42.7114C32.0132 44 29.3422 44 24.0002 44C18.6581 44 15.9871 44 14.0008 42.7114C13.3063 42.2608 12.6859 41.7052 12.1618 41.0644C10.663 39.2316 10.3698 36.5766 9.78334 31.267L7.52954 10.8608H40.4708L38.217 31.267Z" fill="#ffff"/>
<path fill-rule="evenodd" clip-rule="evenodd" d="M4.5 12.244C4.5 11.4155 5.17158 10.744 6 10.744H42C42.8284 10.744 43.5 11.4155 43.5 12.244C43.5 13.0724 42.8284 13.744 42 13.744H6C5.17158 13.744 4.5 13.0724 4.5 12.244Z" fill="#ffff"/>
</svg>
