<?xml version="1.0" encoding="iso-8859-1"?>
<!-- Uploaded to: SVG Repo, www.svgrepo.com, Generator: SVG Repo Mixer Tools -->
<!DOCTYPE svg PUBLIC "-//W3C//DTD SVG 1.1//EN" "http://www.w3.org/Graphics/SVG/1.1/DTD/svg11.dtd">
<svg fill="#000000" height="800px" width="800px" version="1.1" id="Capa_1" xmlns="http://www.w3.org/2000/svg" xmlns:xlink="http://www.w3.org/1999/xlink" 
	 viewBox="0 0 297 297" xml:space="preserve">
<g>
	<path d="M286.933,262.429c5.56,0,10.067-4.508,10.067-10.068V44.64c0-5.56-4.508-10.068-10.067-10.068H44.677
		c-5.56,0-10.067,4.508-10.067,10.068v24.553H10.067C4.508,69.192,0,73.7,0,79.261v173.1c0,5.561,4.508,10.068,10.067,10.068
		H286.933z M20.136,89.328h14.474v152.965H20.136V89.328z M276.864,242.293H54.745V54.707h222.119V242.293z"/>
	<path d="M165.804,193.189h86.52c5.56,0,10.067-4.508,10.067-10.067V96.572c0-5.56-4.508-10.068-10.067-10.068h-86.52
		c-5.56,0-10.067,4.509-10.067,10.068v86.549C155.736,188.681,160.244,193.189,165.804,193.189z M175.872,106.64h66.383v66.413
		h-66.383V106.64z"/>
	<path d="M79.284,227.808h173.039c5.56,0,10.067-4.508,10.067-10.068c0-5.56-4.508-10.067-10.067-10.067H79.284
		c-5.561,0-10.068,4.508-10.068,10.067C69.216,223.3,73.724,227.808,79.284,227.808z"/>
	<path d="M79.284,106.64h51.913c5.56,0,10.067-4.508,10.067-10.067c0-5.56-4.508-10.068-10.067-10.068H79.284
		c-5.561,0-10.068,4.509-10.068,10.068C69.216,102.132,73.724,106.64,79.284,106.64z"/>
	<path d="M79.284,141.26h51.913c5.56,0,10.067-4.508,10.067-10.067c0-5.561-4.508-10.068-10.067-10.068H79.284
		c-5.561,0-10.068,4.508-10.068,10.068C69.216,136.752,73.724,141.26,79.284,141.26z"/>
	<path d="M79.284,175.876h51.913c5.56,0,10.067-4.508,10.067-10.068c0-5.56-4.508-10.067-10.067-10.067H79.284
		c-5.561,0-10.068,4.508-10.068,10.067C69.216,171.368,73.724,175.876,79.284,175.876z"/>
</g>
</svg>