<svg xmlns="http://www.w3.org/2000/svg" width="62.69" height="67"><path fill="#1361a2" fill-rule="evenodd" d="M8.17 11.18a42.53 42.53 0 016.34-.46c3 0 4.84.3 6.45 1.23a4.75 4.75 0 012.58 4.32c0 1.9-1.13 3.69-3.58 4.63v.07a5.42 5.42 0 014.32 5.34 5.85 5.85 0 01-2.25 4.67c-1.59 1.27-4.23 1.98-8.55 1.98a37.76 37.76 0 01-5.31-.33V11.18zm4.86 8.36h1.61c2.62 0 3.97-1.07 3.97-2.7 0-1.64-1.26-2.52-3.48-2.52a12.65 12.65 0 00-2.1.13v5.09zm0 9.69a15.27 15.27 0 001.9.07c2.22 0 4.2-.88 4.2-3.18 0-2.17-1.98-3.05-4.42-3.05h-1.68v6.16zm20-18.34v21.84h-4.9V10.9h4.9zm23 20.84a24.14 24.14 0 01-7.24 1.23c-3.97 0-6.83-1-8.83-2.92a10.98 10.98 0 01-3.07-7.97c.04-7.26 5.29-11.41 12.41-11.41a15.59 15.59 0 016.03 1.04l-1.04 3.98a11.34 11.34 0 00-5.02-.94c-4.1 0-7.22 2.3-7.22 7.07 0 4.54 2.83 7.16 6.86 7.16a7.51 7.51 0 002.39-.29v-4.6h-3.35v-3.86h8.08v11.5zM4.58 48.93L3.51 52.8H0l4.56-15.08h4.45l4.67 15.07h-3.66l-1.16-3.87h-4.3zm3.8-2.55l-.93-3.2c-.27-.9-.53-2.02-.76-2.91h-.04c-.22.9-.45 2.03-.69 2.9l-.89 3.2h3.31zm7.7-8.46a27.6 27.6 0 014.58-.31 7.17 7.17 0 014.59 1.2 4.35 4.35 0 011.6 3.5 4.72 4.72 0 01-1.38 3.58 7.03 7.03 0 01-4.87 1.58 5.77 5.77 0 01-1.16-.09v5.42h-3.36V37.92zm3.36 6.85a5.06 5.06 0 001.14.09c1.8 0 2.91-.92 2.91-2.44 0-1.39-.96-2.22-2.67-2.22a6.04 6.04 0 00-1.38.12v4.45zm9.72-6.85a27.62 27.62 0 014.58-.31 7.16 7.16 0 014.59 1.2 4.35 4.35 0 011.6 3.5 4.72 4.72 0 01-1.38 3.58 7.04 7.04 0 01-4.88 1.58 5.75 5.75 0 01-1.15-.09v5.42h-3.36V37.92zm3.36 6.85a5.05 5.05 0 001.14.09c1.8 0 2.9-.92 2.9-2.44 0-1.39-.95-2.22-2.66-2.22a6.03 6.03 0 00-1.38.12v4.45zm9.62-7.05h3.38v12.21h5.96v2.86h-9.34V37.72zm19.92 8.7h-5.52V50h6.16v2.8h-9.54V37.72h9.23v2.8h-5.85v3.13h5.52v2.77zM8.16 64.84a4.93 4.93 0 002.18.55c.9 0 1.38-.38 1.38-.95 0-.54-.42-.86-1.46-1.22-1.44-.52-2.4-1.32-2.4-2.6 0-1.48 1.26-2.6 3.3-2.6a5.08 5.08 0 012.2.43l-.43 1.58a4.05 4.05 0 00-1.8-.41 1.04 1.04 0 00-1.26.84c0 .56.47.8 1.6 1.23 1.54.57 2.25 1.37 2.25 2.6 0 1.47-1.1 2.71-3.5 2.71a5.63 5.63 0 01-2.45-.54zm13.35 1.8a5.75 5.75 0 01-2.21.38c-3 0-4.55-1.9-4.55-4.38A4.43 4.43 0 0119.49 58a4.91 4.91 0 012.14.39l-.4 1.55a4.1 4.1 0 00-1.66-.33 2.87 2.87 0 00.02 5.75 4.66 4.66 0 001.65-.29zm3.37-8.5v3.36h3.23v-3.36h1.96v8.73h-1.96v-3.65h-3.23v3.65h-1.96v-8.73h1.96zm14.95 4.28c0 2.87-1.72 4.6-4.27 4.6s-4.08-1.96-4.08-4.46c0-2.62 1.67-4.58 4.22-4.58 2.68 0 4.13 2.01 4.13 4.44zm-6.28.1c0 1.72.8 2.92 2.11 2.92s2.1-1.26 2.1-2.96c0-1.58-.74-2.93-2.1-2.93s-2.1 1.27-2.1 2.97zm15.61-.1c0 2.87-1.72 4.6-4.27 4.6s-4.08-1.96-4.08-4.46c0-2.62 1.67-4.58 4.22-4.58 2.68 0 4.14 2.01 4.14 4.44zm-6.28.1c0 1.72.8 2.92 2.11 2.92s2.1-1.26 2.1-2.96c0-1.58-.73-2.93-2.08-2.93s-2.12 1.27-2.12 2.97zm7.26-4.38h1.96v7.07h3.46v1.66h-5.42v-8.73z"/><path fill="#b2d236" fill-rule="evenodd" d="M41.85.31s-6.6-1.13-8.94.9a15.56 15.56 0 00-4.7 7.86s7.94-.2 10.08-1.78C41.65 4.8 41.85.3 41.85.3z"/></svg>