<svg width="35" height="27" viewBox="0 0 35 27" fill="none" xmlns="http://www.w3.org/2000/svg">
<path fill-rule="evenodd" clip-rule="evenodd" d="M1.03418 0.897343H33.9657C34.1015 0.896967 34.236 0.923626 34.3615 0.975798C34.487 1.02797 34.601 1.10463 34.6971 1.20137C34.7932 1.29812 34.8694 1.41303 34.9214 1.53956C34.9734 1.66608 35.0001 1.80173 35 1.93868V25.8816C35.0001 26.0186 34.9734 26.1542 34.9214 26.2807C34.8694 26.4073 34.7932 26.5222 34.6971 26.6189C34.601 26.7157 34.487 26.7923 34.3615 26.8445C34.236 26.8967 34.1015 26.9234 33.9657 26.923H1.03418C0.76037 26.9226 0.497836 26.8128 0.304027 26.6177C0.110218 26.4225 0.000936154 26.1579 0 25.8816V1.93868C0.000936154 1.66242 0.110218 1.39776 0.304027 1.20261C0.497836 1.00747 0.76037 0.897719 1.03418 0.897343Z" fill="#AA2067"/>
<path fill-rule="evenodd" clip-rule="evenodd" d="M1.4668 3.5653C1.4668 3.5653 14.7308 1.12195 17.5889 3.96491C19.7002 1.2718 33.5674 3.41545 33.5674 3.41545V26.1556C33.5674 26.1556 21.5099 23.7122 17.5889 26.4053C14.58 23.5624 1.4668 26.0057 1.4668 26.0057V3.5653Z" fill="#751342"/>
<path fill-rule="evenodd" clip-rule="evenodd" d="M1.4668 3.0687C1.4668 3.0687 14.7308 0.572241 17.5889 3.477C19.7002 0.725354 33.5674 2.91633 33.5674 2.91633V25.8445C33.5674 25.8445 21.5099 23.6572 17.5889 26.4052C14.58 23.5005 1.4668 25.6914 1.4668 25.6914V3.0687Z" fill="#ADADAD"/>
<path fill-rule="evenodd" clip-rule="evenodd" d="M1.79492 2.37374C1.79492 2.37374 14.7736 0.558732 17.5703 3.35672C19.6362 0.706882 33.2052 2.37374 33.2052 2.37374V25.0427C33.2052 25.0427 21.407 23.3751 17.5703 26.0257C14.6261 23.2291 1.79492 25.0427 1.79492 25.0427V2.37374Z" fill="white"/>
<path fill-rule="evenodd" clip-rule="evenodd" d="M17.9488 25.9646C17.9202 25.9857 17.8845 26.0046 17.8487 26.0257C14.8525 23.229 1.79492 25.0427 1.79492 25.0427V2.37376C1.79492 2.37376 15.0027 0.558697 17.8487 3.35677C17.8773 3.32096 17.9202 3.28655 17.9488 3.25425V25.9653V25.9646Z" fill="#F1F0F0"/>
<path fill-rule="evenodd" clip-rule="evenodd" d="M32.0151 19.1316C27.8986 18.1945 23.6175 18.1945 19.501 19.1316C19.4451 19.1551 19.3841 19.1648 19.3235 19.1598C19.2629 19.1548 19.2045 19.1353 19.1534 19.1029C19.1024 19.0706 19.0602 19.0264 19.0306 18.9743C19.0011 18.9222 18.9851 18.8638 18.9841 18.8042C18.9952 18.6671 19.0517 18.5372 19.145 18.4342C19.2383 18.3313 19.3632 18.2609 19.501 18.2338C23.6175 17.2967 27.8986 17.2967 32.0151 18.2338C32.1528 18.2609 32.2778 18.3313 32.3711 18.4342C32.4644 18.5372 32.5209 18.6671 32.532 18.8042C32.531 18.8638 32.515 18.9222 32.4855 18.9743C32.4559 19.0264 32.4137 19.0706 32.3626 19.1029C32.3116 19.1353 32.2532 19.1548 32.1926 19.1598C32.1319 19.1648 32.071 19.1551 32.0151 19.1316ZM32.0151 15.914C27.8986 14.977 23.6175 14.977 19.501 15.914C19.4451 15.9376 19.3841 15.9473 19.3235 15.9423C19.2629 15.9373 19.2045 15.9177 19.1534 15.8854C19.1024 15.853 19.0602 15.8089 19.0306 15.7568C19.0011 15.7047 18.9851 15.6463 18.9841 15.5867C18.9951 15.4495 19.0516 15.3195 19.1449 15.2166C19.2382 15.1136 19.3632 15.0433 19.501 15.0162C23.6175 14.0792 27.8986 14.0792 32.0151 15.0162C32.1529 15.0433 32.2779 15.1136 32.3712 15.2166C32.4645 15.3195 32.521 15.4495 32.532 15.5867C32.531 15.6463 32.515 15.7047 32.4855 15.7568C32.4559 15.8089 32.4137 15.853 32.3626 15.8854C32.3116 15.9177 32.2532 15.9373 32.1926 15.9423C32.1319 15.9473 32.071 15.9376 32.0151 15.914ZM32.0151 12.6958C27.8985 11.7594 23.6176 11.7594 19.501 12.6958C19.4452 12.7195 19.3842 12.7293 19.3236 12.7244C19.263 12.7196 19.2046 12.7001 19.1534 12.6678C19.1023 12.6355 19.0601 12.5914 19.0305 12.5393C19.001 12.4872 18.985 12.4287 18.9841 12.3692C18.9953 12.232 19.0519 12.1022 19.1452 11.9992C19.2384 11.8963 19.3633 11.8259 19.501 11.7987C23.6176 10.8623 27.8985 10.8623 32.0151 11.7987C32.1528 11.8259 32.2777 11.8963 32.3709 11.9992C32.4642 12.1022 32.5207 12.232 32.532 12.3692C32.5311 12.4287 32.5151 12.4872 32.4855 12.5393C32.456 12.5914 32.4138 12.6355 32.3626 12.6678C32.3115 12.7001 32.2531 12.7196 32.1925 12.7244C32.1318 12.7293 32.0709 12.7195 32.0151 12.6958ZM32.0151 9.47821C27.8985 8.54187 23.6176 8.54187 19.501 9.47821C19.4451 9.50175 19.3841 9.51145 19.3235 9.50646C19.2629 9.50147 19.2045 9.48194 19.1534 9.44959C19.1024 9.41725 19.0602 9.37307 19.0306 9.32098C19.0011 9.26889 18.9851 9.21048 18.9841 9.15091C18.9952 9.01371 19.0517 8.88382 19.145 8.78088C19.2383 8.67795 19.3632 8.60756 19.501 8.58041C23.6175 7.64338 27.8986 7.64338 32.0151 8.58041C32.1528 8.60756 32.2778 8.67795 32.3711 8.78088C32.4644 8.88382 32.5209 9.01371 32.532 9.15091C32.531 9.21048 32.515 9.26889 32.4855 9.32098C32.4559 9.37307 32.4137 9.41725 32.3626 9.44959C32.3116 9.48194 32.2532 9.50147 32.1926 9.50646C32.1319 9.51145 32.071 9.50175 32.0151 9.47821ZM32.0151 6.26067C27.8986 5.32364 23.6175 5.32364 19.501 6.26067C19.4451 6.28421 19.3841 6.29391 19.3235 6.28892C19.2629 6.28393 19.2045 6.26438 19.1534 6.23203C19.1024 6.19968 19.0602 6.15553 19.0306 6.10344C19.0011 6.05135 18.9851 5.99292 18.9841 5.93334C18.9954 5.79623 19.052 5.66645 19.1453 5.56356C19.2385 5.46066 19.3634 5.39023 19.501 5.36287C23.6176 4.42652 27.8985 4.42652 32.0151 5.36287C32.1527 5.39023 32.2776 5.46066 32.3708 5.56356C32.464 5.66645 32.5206 5.79623 32.532 5.93334C32.531 5.99292 32.515 6.05135 32.4855 6.10344C32.4559 6.15553 32.4137 6.19968 32.3626 6.23203C32.3116 6.26438 32.2532 6.28393 32.1926 6.28892C32.1319 6.29391 32.071 6.28421 32.0151 6.26067ZM15.5407 22.2343C11.4217 21.2973 7.13829 21.2973 3.01929 22.2343C2.96337 22.2573 2.90258 22.2666 2.84218 22.2614C2.78177 22.2561 2.72354 22.2365 2.67262 22.2043C2.6217 22.172 2.57965 22.1281 2.54998 22.0763C2.52032 22.0245 2.50399 21.9664 2.50244 21.907C2.51498 21.7703 2.57195 21.641 2.66498 21.5384C2.75801 21.4357 2.88217 21.3649 3.01929 21.3365C7.13829 20.3995 11.4217 20.3995 15.5407 21.3365C15.6778 21.3649 15.802 21.4357 15.8951 21.5384C15.9881 21.641 16.0451 21.7703 16.0576 21.907C16.0562 21.9664 16.04 22.0246 16.0103 22.0765C15.9807 22.1284 15.9385 22.1724 15.8876 22.2048C15.8367 22.2371 15.7784 22.2568 15.718 22.262C15.6575 22.2673 15.5966 22.258 15.5407 22.235V22.2343ZM15.5407 19.1309C11.4217 18.1938 7.13829 18.1938 3.01929 19.1309C2.96337 19.1538 2.90258 19.1631 2.84218 19.1579C2.78177 19.1527 2.72354 19.1331 2.67262 19.1008C2.6217 19.0686 2.57965 19.0246 2.54998 18.9728C2.52032 18.921 2.50399 18.8629 2.50244 18.8035C2.51498 18.6668 2.57195 18.5376 2.66498 18.4349C2.75801 18.3322 2.88217 18.2615 3.01929 18.2331C7.13829 17.296 11.4217 17.296 15.5407 18.2331C15.6778 18.2615 15.802 18.3322 15.8951 18.4349C15.9881 18.5376 16.0451 18.6668 16.0576 18.8035C16.0562 18.863 16.04 18.9212 16.0103 18.9731C15.9807 19.025 15.9385 19.069 15.8876 19.1013C15.8367 19.1337 15.7784 19.1533 15.718 19.1586C15.6575 19.1639 15.5966 19.1546 15.5407 19.1316V19.1309ZM15.5407 15.9133C11.4217 14.9763 7.13829 14.9763 3.01929 15.9133C2.96337 15.9363 2.90258 15.9456 2.84218 15.9403C2.78177 15.9351 2.72354 15.9155 2.67262 15.8833C2.6217 15.851 2.57965 15.8071 2.54998 15.7553C2.52032 15.7035 2.50399 15.6454 2.50244 15.586C2.51498 15.4493 2.57195 15.3201 2.66498 15.2174C2.75801 15.1147 2.88217 15.0439 3.01929 15.0155C7.13829 14.0785 11.4217 14.0785 15.5407 15.0155C15.6778 15.0439 15.802 15.1147 15.8951 15.2174C15.9881 15.3201 16.0451 15.4493 16.0576 15.586C16.0562 15.6454 16.04 15.7036 16.0103 15.7555C15.9807 15.8074 15.9385 15.8515 15.8876 15.8838C15.8367 15.9161 15.7784 15.9358 15.718 15.941C15.6575 15.9463 15.5966 15.937 15.5407 15.914V15.9133ZM15.5407 12.6951C11.4216 11.7587 7.13837 11.7587 3.01929 12.6951C2.96344 12.7182 2.90268 12.7276 2.84226 12.7225C2.78185 12.7174 2.72358 12.6979 2.67262 12.6657C2.62166 12.6335 2.57957 12.5896 2.5499 12.5378C2.52022 12.486 2.50394 12.4278 2.50244 12.3684C2.51498 12.2317 2.57195 12.1025 2.66498 11.9998C2.75801 11.8972 2.88217 11.8264 3.01929 11.7979C7.13837 10.8616 11.4216 10.8616 15.5407 11.7979C15.6778 11.8264 15.802 11.8972 15.8951 11.9998C15.9881 12.1025 16.0451 12.2317 16.0576 12.3684C16.0562 12.4279 16.04 12.4861 16.0103 12.538C15.9807 12.5899 15.9386 12.6339 15.8876 12.6662C15.8366 12.6985 15.7784 12.718 15.718 12.7232C15.6575 12.7284 15.5966 12.7189 15.5407 12.6958V12.6951ZM15.5407 9.47749C11.4216 8.54118 7.13837 8.54118 3.01929 9.47749C2.96337 9.50048 2.90258 9.50978 2.84218 9.50454C2.78177 9.49931 2.72354 9.47971 2.67262 9.44746C2.6217 9.41521 2.57965 9.37128 2.54998 9.31948C2.52032 9.26767 2.50399 9.20957 2.50244 9.15019C2.51498 9.01345 2.57195 8.88426 2.66498 8.78158C2.75801 8.6789 2.88217 8.60812 3.01929 8.57969C7.13829 7.64267 11.4217 7.64267 15.5407 8.57969C15.6778 8.60812 15.802 8.6789 15.8951 8.78158C15.9881 8.88426 16.0451 9.01345 16.0576 9.15019C16.0562 9.20963 16.04 9.26782 16.0103 9.31972C15.9807 9.37161 15.9385 9.41566 15.8876 9.44798C15.8367 9.48031 15.7784 9.49995 15.718 9.50522C15.6575 9.51049 15.5966 9.50122 15.5407 9.47821V9.47749ZM15.5407 6.25995C11.4217 5.32293 7.13829 5.32293 3.01929 6.25995C2.96337 6.28294 2.90258 6.29224 2.84218 6.287C2.78177 6.28177 2.72354 6.26217 2.67262 6.22992C2.6217 6.19767 2.57965 6.15374 2.54998 6.10194C2.52032 6.05013 2.50399 5.99203 2.50244 5.93265C2.51498 5.79591 2.57195 5.6667 2.66498 5.56401C2.75801 5.46133 2.88217 5.39058 3.01929 5.36215C7.13837 4.42583 11.4216 4.42583 15.5407 5.36215C15.6778 5.39058 15.802 5.46133 15.8951 5.56401C15.9881 5.6667 16.0451 5.79591 16.0576 5.93265C16.0562 5.99209 16.04 6.05028 16.0103 6.10218C15.9807 6.15407 15.9385 6.19809 15.8876 6.23042C15.8367 6.26275 15.7784 6.28241 15.718 6.28768C15.6575 6.29295 15.5966 6.28368 15.5407 6.26067V6.25995ZM19.501 21.3344C23.6175 20.3973 27.8986 20.3973 32.0151 21.3344C32.1528 21.3615 32.2778 21.4319 32.3711 21.5348C32.4644 21.6378 32.5209 21.7676 32.532 21.9048C32.531 21.9644 32.515 22.0228 32.4855 22.0749C32.4559 22.127 32.4137 22.1712 32.3626 22.2035C32.3116 22.2359 32.2532 22.2554 32.1926 22.2604C32.1319 22.2654 32.071 22.2557 32.0151 22.2322C27.8986 21.2951 23.6175 21.2951 19.501 22.2322C19.4451 22.2557 19.3841 22.2654 19.3235 22.2604C19.2629 22.2554 19.2045 22.2359 19.1534 22.2035C19.1024 22.1712 19.0602 22.127 19.0306 22.0749C19.0011 22.0228 18.9851 21.9644 18.9841 21.9048C18.9954 21.7678 19.052 21.638 19.1453 21.5352C19.2385 21.4325 19.3634 21.3622 19.501 21.3351V21.3344Z" fill="#A9A8A8"/>
<path fill-rule="evenodd" clip-rule="evenodd" d="M17.0513 0H20.641V16.1538L18.7303 15.2499L17.0513 16.1538V0Z" fill="#EE305C"/>
</svg>
