<svg width="800" height="800" viewBox="0 0 800 800" fill="none" xmlns="http://www.w3.org/2000/svg">
<path d="M233.333 66.6667C141.286 66.6667 66.6665 141.286 66.6665 233.333V566.667C66.6665 658.713 141.286 733.333 233.333 733.333H566.666C658.713 733.333 733.333 658.713 733.333 566.667V294.281C733.333 267.759 722.796 242.324 704.043 223.57L576.43 95.9561C557.676 77.2024 532.24 66.6667 505.72 66.6667H233.333Z" fill="#41B883"/>
<path d="M233.333 133.333C214.924 133.333 200 148.257 200 166.667V233.333C200 251.743 214.924 266.667 233.333 266.667H500C518.41 266.667 533.333 251.743 533.333 233.333V166.667C533.333 148.257 518.41 133.333 500 133.333H233.333Z" fill="#157055"/>
<path d="M500 466.667C500 521.897 455.23 566.667 400 566.667C344.77 566.667 300 521.897 300 466.667C300 411.437 344.77 366.667 400 366.667C455.23 366.667 500 411.437 500 466.667Z" fill="#157055"/>
</svg>
