<svg width="800" height="800" viewBox="0 0 800 800" fill="none" xmlns="http://www.w3.org/2000/svg">
<path d="M750.307 82.2561H49.692C31.0847 82.2561 15.9997 97.3401 15.9997 115.947V552.286C15.9997 570.894 31.0847 585.978 49.692 585.978H750.307C768.916 585.978 784 570.894 784 552.286V115.948C784 97.3401 768.916 82.2561 750.307 82.2561Z" fill="#E7E3E6"/>
<path d="M741.415 122.612H58.5874V502.593H741.415V122.612Z" fill="white"/>
<path d="M519 414H288V586H519V414Z" fill="white"/>
<path d="M118.185 141.847C116.391 141.847 114.596 142.532 113.227 143.901C110.487 146.641 110.487 151.078 113.227 153.818L134.876 175.467L113.227 197.117C110.487 199.856 110.487 204.294 113.227 207.033C115.966 209.773 120.404 209.773 123.143 207.033L149.751 180.425C152.49 177.686 152.49 173.249 149.751 170.509L123.143 143.901C121.773 142.532 119.979 141.847 118.185 141.847Z" fill="#85BD57"/>
<path d="M179.72 161.438C175.849 161.438 172.708 164.579 172.708 168.45C172.708 172.322 175.846 175.463 179.72 175.463L217.356 175.467C221.228 175.467 224.369 172.331 224.369 168.455C224.369 164.583 221.23 161.442 217.356 161.442L179.72 161.438Z" fill="#53B1E2"/>
<path d="M310.63 164H490.368C496.355 163.999 500.943 163.998 504.955 164.39C533.481 167.181 556.831 184.332 566.732 207.435H234.265C244.166 184.332 267.515 167.181 296.042 164.39C300.054 163.998 304.643 163.999 310.63 164Z" fill="#1361A2"/>
<path d="M253.996 234.12C218.187 234.12 188.825 255.744 179.027 284.43C178.823 285.028 178.627 285.629 178.439 286.233C188.692 283.129 199.362 281.1 210.163 279.716C237.983 276.149 273.14 276.151 313.981 276.153H491.452C532.291 276.151 567.45 276.149 595.271 279.716C606.07 281.1 616.741 283.129 626.992 286.233C626.807 285.629 626.611 285.028 626.405 284.43C616.607 255.744 587.244 234.12 551.436 234.12H253.996Z" fill="#1361A2"/>
<path fill-rule="evenodd" clip-rule="evenodd" d="M486.186 306.707H314.814C227.913 306.707 184.462 306.707 160.055 332.118C135.648 357.529 141.39 396.788 152.875 475.307L163.767 549.763C172.774 611.339 177.277 642.126 200.38 660.563C223.482 679 257.557 679 325.705 679H475.294C543.444 679 577.519 679 600.622 660.563C623.724 642.126 628.226 611.339 637.233 549.763L648.125 475.307C659.61 396.79 665.352 357.529 640.946 332.118C616.538 306.707 573.087 306.707 486.186 306.707ZM466.966 519.201C481.345 510.288 481.345 487.211 466.966 478.299L380.147 424.477C366.173 415.814 349 427.09 349 444.93V552.57C349 570.41 366.173 581.686 380.147 573.023L466.966 519.201Z" fill="#1361A2"/>
</svg>
